<svg id="svgQrWrapper" viewBox="0 0 300 300" xmlns="http://www.w3.org/2000/svg"
  xmlns:xlink="http://www.w3.org/1999/xlink" width="300" height="300" style="width: 100%; height: 100%;"><svg
    fill="none" xmlns="http://www.w3.org/2000/svg" width="300" height="300" viewBox="0 0 2000 2000">
    <g transform="translate(-240,-180)scale(1.2)">
      <defs>
        <style>
          .cls9-1 {
            fill: #ff97c1
          }

          .cls9-2 {
            fill: #9a1663
          }

          .cls9-3 {
            fill: #e0144c
          }

          .cls9-4 {
            fill: #ff5858
          }
        </style>
      </defs>
      <path class="cls9-1"
        d="M503.81 1426.4h8v165h-8zM754.72 1427.34h8v165h-8zM926.17 1427.34h8v204.83h-8zM1215.36 1426.4h8v204.83h-8zM1433.98 1438.41h8v244.89h-8zM1622.46 1414.92h8v244.89h-8z" />
      <path class="cls9-2"
        d="M808.1 1535.44c-2.64-7.11-10.36-16-21.3-18-9.76-1.83-20.18 2.14-28.08 10.24-7.9-8.1-18.32-12.07-28.08-10.24-10.94 2-18.66 10.92-21.3 18-6.93 18.62 12.54 47.84 49.35 71.49h.06c36.81-23.65 56.25-52.87 49.35-71.49Z" />
      <path class="cls9-3"
        d="M1325.94 1549.71c-5.7-15.34-22.36-34.5-46-38.92-21.06-4-43.56 4.62-60.61 22.11-17-17.49-39.55-26.06-60.61-22.11-23.6 4.42-40.26 23.58-46 38.92-15 40.2 27.06 103.26 106.51 154.31h.14c79.52-51.02 121.53-114.11 106.57-154.31Z" />
      <path class="cls9-4"
        d="M1708.17 1547.53c-4.38-11.76-17.15-26.45-35.24-29.84-16.15-3-33.4 3.54-46.47 17-13.06-13.41-30.31-20-46.46-17-18.09 3.39-30.86 18.08-35.24 29.84-11.46 30.81 20.74 79.16 81.65 118.29h.11c60.91-39.13 93.11-87.48 81.65-118.29ZM1002.27 1627.79c-3.86-10.37-15.13-23.34-31.1-26.33-14.25-2.66-29.47 3.13-41 15-11.53-11.83-26.75-17.62-41-15-16 3-27.24 16-31.1 26.33-10.11 27.2 18.31 69.85 72 104.39h.1c53.83-34.54 82.22-77.18 72.1-104.39Z" />
      <path class="cls9-3"
        d="M603.64 1609.34c-.1 1.14-.24 2.28-.42 3.43a76 76 0 0 1-4.83 17.13c-.47 1.17-1 2.35-1.5 3.53q-1.92 4.3-4.38 8.71a153.61 153.61 0 0 1-13.73 20.44q-3.84 4.9-8.25 9.83c-1.33 1.49-2.7 3-4.12 4.48a218.38 218.38 0 0 1-5.44 5.6q-5.1 5.07-10.75 10.11t-12 10.14a355.06 355.06 0 0 1-30.35 21.78h-.13c-10.18-6.55-19.67-13.32-28.39-20.22q-6-4.72-11.48-9.52t-10.42-9.55q-4.95-4.79-9.4-9.58-5.78-6.2-10.67-12.39-2.94-3.69-5.55-7.36c-1-1.36-1.89-2.7-2.79-4.05a129.28 129.28 0 0 1-9.76-17.21c-.2-.42-.39-.84-.56-1.25a85.13 85.13 0 0 1-5.36-15.59 61.78 61.78 0 0 1-1.48-9.68 50 50 0 0 1 .12-8.12 41.72 41.72 0 0 1 2.42-10.75c.31-.83.66-1.68 1-2.54a55.64 55.64 0 0 1 10.11-15c7.2-7.77 17.15-14.36 29.15-16.6 18.46-3.46 38.19 4.05 53.13 19.38 14.95-15.33 34.68-22.84 53.14-19.38 13.81 2.58 24.92 10.93 32.25 20.2a56.12 56.12 0 0 1 5 7.43 47.37 47.37 0 0 1 3 6.49c.46 1.23.85 2.48 1.19 3.76a46.88 46.88 0 0 1 1.25 16.35Z" />
      <path class="cls9-2"
        d="M1503 1682.16c0 .8 0 1.61-.08 2.43a45.48 45.48 0 0 1-2.32 11.36 74.4 74.4 0 0 1-7.66 15.86q-1.89 3-4.11 6.1c-.69.94-1.4 1.89-2.14 2.84-1.81 2.36-3.78 4.74-5.89 7.11q-4.2 4.74-9.14 9.48-5.42 5.21-11.7 10.33c-1.94 1.59-4 3.17-6 4.74-5 3.78-10.28 7.5-15.91 11.11h-.09c-5.62-3.61-10.93-7.33-15.9-11.11-2.07-1.57-4.07-3.15-6-4.74q-6.27-5.12-11.69-10.33-4.93-4.72-9.14-9.48c-2.11-2.37-4.08-4.75-5.9-7.11-.74-1-1.45-1.9-2.13-2.84q-2.24-3.08-4.12-6.1a75.37 75.37 0 0 1-7.66-15.86 45.48 45.48 0 0 1-2.32-11.36c0-.81-.08-1.62-.08-2.43a29.71 29.71 0 0 1 1.42-9.16c.11-.34.23-.69.36-1a32.93 32.93 0 0 1 3.11-6.15c4.77-7.48 13.21-14.88 24.16-16.94 12.49-2.34 25.84 2.74 36 13.12 10.11-10.38 23.46-15.46 36-13.12 11 2.06 19.39 9.46 24.17 16.94a32.93 32.93 0 0 1 3.11 6.15c.13.34.25.68.36 1a29.62 29.62 0 0 1 1.29 9.16Z" />
      <path class="cls9-1"
        d="M1584.16 1443.38H538.05a71.9 71.9 0 0 1-71.81-71.81V325.46a71.9 71.9 0 0 1 71.81-71.82h1046.11a71.89 71.89 0 0 1 71.84 71.82v1046.11a71.89 71.89 0 0 1-71.84 71.81ZM538.05 273.64a51.87 51.87 0 0 0-51.81 51.82v1046.11a51.87 51.87 0 0 0 51.81 51.81h1046.11a51.87 51.87 0 0 0 51.81-51.81V325.46a51.87 51.87 0 0 0-51.81-51.82ZM1501.57 1673h-127.18c.11-.34.23-.69.36-1a32.93 32.93 0 0 1 3.11-6.15h120.24a32.93 32.93 0 0 1 3.11 6.15c.13.31.25.65.36 1ZM1503 1682.16c0 .8 0 1.61-.08 2.43h-129.87c0-.81-.08-1.62-.08-2.43ZM1500.58 1696a74.4 74.4 0 0 1-7.66 15.86H1383a75.37 75.37 0 0 1-7.66-15.86ZM1488.81 1717.91c-.69.94-1.4 1.89-2.14 2.84h-97.39c-.74-1-1.45-1.9-2.13-2.84ZM1480.78 1727.86q-4.2 4.74-9.14 9.48h-67.32q-4.93-4.72-9.14-9.48ZM1459.94 1747.67c-1.94 1.59-4 3.17-6 4.74H1422c-2.07-1.57-4.07-3.15-6-4.74ZM602.44 1593a46.88 46.88 0 0 1 1.2 16.34l-106.57-12.82-31.65-3.8-50-6a55.64 55.64 0 0 1 10.11-15l103.07 12.4 31.65 3.8ZM413.37 1617.8l189.85-5a76 76 0 0 1-4.83 17.13l-173.62 4.6-5.48.14c-.2-.42-.39-.84-.56-1.25a85.13 85.13 0 0 1-5.36-15.62Z" />
      <path class="cls9-4"
        d="m598.22 1582.75-38 5.17-63.18 8.6-85.18 11.6a50 50 0 0 1 .14-8.12l53.46-7.27 63.18-8.6 64.6-8.8a56.12 56.12 0 0 1 4.98 7.42Z" />
      <path class="cls9-1"
        d="m495 1647.3 101.89-13.87q-1.92 4.3-4.38 8.71l-72 9.81-52 7.08-31.06 4.23q-2.94-3.69-5.55-7.36l11.12-1.52Z" />
      <path class="cls9-4"
        d="m520.49 1652 58.29 10.63q-3.84 4.9-8.25 9.83c-1.33 1.49-2.7 3-4.12 4.48l-21-3.82-77-14-25.41-4.74-13.91-2.53a129.28 129.28 0 0 1-9.76-17.21c-.2-.42-.39-.84-.56-1.25l6 1.11 70.23 12.8Z" />
      <path class="cls9-1"
        d="m545.45 1673.07 25.08-.66c-1.33 1.49-2.7 3-4.12 4.48a218.38 218.38 0 0 1-5.44 5.6l-103.51 2.74q-4.95-4.79-9.4-9.58Z" />
      <path class="cls9-4" d="m467.88 1694.78 82.34-2.18q-5.72 5.1-12 10.14l-58.87 1.56q-5.97-4.72-11.47-9.52Z" />
      <g transform="translate(540, 330)scale(3.5)" fill="none"><svg width="300" height="300">
          <style>
            .background-color {
              fill: #fff;
            }

            .dot-color {
              fill: #fff;
            }

            .corners-square-color-0-0 {
              fill: #fff;
            }

            .corners-dot-color-0-0 {
              fill: #fff;
            }

            .corners-square-color-1-0 {
              fill: #fff;
            }

            .corners-dot-color-1-0 {
              fill: #fff;
            }

            .corners-square-color-0-1 {
              fill: #fff;
            }

            .corners-dot-color-0-1 {
              fill: #fff;
            }
          </style>
          <defs />
          <g class="dot-color">
            <rect x="5" y="95" width="10" height="10" transform="rotate(0,10,100)" />
            <rect x="5" y="105" width="10" height="10" transform="rotate(0,10,110)" />
            <rect x="5" y="125" width="10" height="10" transform="rotate(0,10,130)" />
            <rect x="5" y="135" width="10" height="10" transform="rotate(0,10,140)" />
            <rect x="5" y="145" width="10" height="10" transform="rotate(0,10,150)" />
            <rect x="5" y="165" width="10" height="10" transform="rotate(0,10,170)" />
            <rect x="5" y="195" width="10" height="10" transform="rotate(0,10,200)" />
            <rect x="15" y="85" width="10" height="10" transform="rotate(0,20,90)" />
            <rect x="15" y="95" width="10" height="10" transform="rotate(0,20,100)" />
            <rect x="15" y="125" width="10" height="10" transform="rotate(0,20,130)" />
            <rect x="15" y="135" width="10" height="10" transform="rotate(0,20,140)" />
            <rect x="15" y="165" width="10" height="10" transform="rotate(0,20,170)" />
            <rect x="15" y="195" width="10" height="10" transform="rotate(0,20,200)" />
            <rect x="25" y="95" width="10" height="10" transform="rotate(0,30,100)" />
            <rect x="25" y="125" width="10" height="10" transform="rotate(0,30,130)" />
            <rect x="25" y="135" width="10" height="10" transform="rotate(0,30,140)" />
            <rect x="25" y="145" width="10" height="10" transform="rotate(0,30,150)" />
            <rect x="25" y="165" width="10" height="10" transform="rotate(0,30,170)" />
            <rect x="25" y="195" width="10" height="10" transform="rotate(0,30,200)" />
            <rect x="25" y="205" width="10" height="10" transform="rotate(0,30,210)" />
            <rect x="35" y="85" width="10" height="10" transform="rotate(0,40,90)" />
            <rect x="35" y="95" width="10" height="10" transform="rotate(0,40,100)" />
            <rect x="35" y="105" width="10" height="10" transform="rotate(0,40,110)" />
            <rect x="35" y="125" width="10" height="10" transform="rotate(0,40,130)" />
            <rect x="35" y="135" width="10" height="10" transform="rotate(0,40,140)" />
            <rect x="35" y="145" width="10" height="10" transform="rotate(0,40,150)" />
            <rect x="35" y="165" width="10" height="10" transform="rotate(0,40,170)" />
            <rect x="35" y="175" width="10" height="10" transform="rotate(0,40,180)" />
            <rect x="35" y="205" width="10" height="10" transform="rotate(0,40,210)" />
            <rect x="45" y="85" width="10" height="10" transform="rotate(0,50,90)" />
            <rect x="45" y="95" width="10" height="10" transform="rotate(0,50,100)" />
            <rect x="45" y="115" width="10" height="10" transform="rotate(0,50,120)" />
            <rect x="45" y="185" width="10" height="10" transform="rotate(0,50,190)" />
            <rect x="45" y="195" width="10" height="10" transform="rotate(0,50,200)" />
            <rect x="55" y="105" width="10" height="10" transform="rotate(0,60,110)" />
            <rect x="55" y="135" width="10" height="10" transform="rotate(0,60,140)" />
            <rect x="55" y="145" width="10" height="10" transform="rotate(0,60,150)" />
            <rect x="55" y="165" width="10" height="10" transform="rotate(0,60,170)" />
            <rect x="55" y="175" width="10" height="10" transform="rotate(0,60,180)" />
            <rect x="55" y="185" width="10" height="10" transform="rotate(0,60,190)" />
            <rect x="65" y="85" width="10" height="10" transform="rotate(0,70,90)" />
            <rect x="65" y="105" width="10" height="10" transform="rotate(0,70,110)" />
            <rect x="65" y="125" width="10" height="10" transform="rotate(0,70,130)" />
            <rect x="65" y="145" width="10" height="10" transform="rotate(0,70,150)" />
            <rect x="65" y="165" width="10" height="10" transform="rotate(0,70,170)" />
            <rect x="65" y="185" width="10" height="10" transform="rotate(0,70,190)" />
            <rect x="65" y="205" width="10" height="10" transform="rotate(0,70,210)" />
            <rect x="75" y="85" width="10" height="10" transform="rotate(0,80,90)" />
            <rect x="75" y="95" width="10" height="10" transform="rotate(0,80,100)" />
            <rect x="75" y="105" width="10" height="10" transform="rotate(0,80,110)" />
            <rect x="75" y="125" width="10" height="10" transform="rotate(0,80,130)" />
            <rect x="75" y="155" width="10" height="10" transform="rotate(0,80,160)" />
            <rect x="75" y="185" width="10" height="10" transform="rotate(0,80,190)" />
            <rect x="85" y="15" width="10" height="10" transform="rotate(0,90,20)" />
            <rect x="85" y="35" width="10" height="10" transform="rotate(0,90,40)" />
            <rect x="85" y="45" width="10" height="10" transform="rotate(0,90,50)" />
            <rect x="85" y="55" width="10" height="10" transform="rotate(0,90,60)" />
            <rect x="85" y="65" width="10" height="10" transform="rotate(0,90,70)" />
            <rect x="85" y="85" width="10" height="10" transform="rotate(0,90,90)" />
            <rect x="85" y="105" width="10" height="10" transform="rotate(0,90,110)" />
            <rect x="85" y="135" width="10" height="10" transform="rotate(0,90,140)" />
            <rect x="85" y="145" width="10" height="10" transform="rotate(0,90,150)" />
            <rect x="85" y="155" width="10" height="10" transform="rotate(0,90,160)" />
            <rect x="85" y="185" width="10" height="10" transform="rotate(0,90,190)" />
            <rect x="85" y="205" width="10" height="10" transform="rotate(0,90,210)" />
            <rect x="85" y="215" width="10" height="10" transform="rotate(0,90,220)" />
            <rect x="85" y="225" width="10" height="10" transform="rotate(0,90,230)" />
            <rect x="85" y="245" width="10" height="10" transform="rotate(0,90,250)" />
            <rect x="85" y="255" width="10" height="10" transform="rotate(0,90,260)" />
            <rect x="85" y="275" width="10" height="10" transform="rotate(0,90,280)" />
            <rect x="95" y="25" width="10" height="10" transform="rotate(0,100,30)" />
            <rect x="95" y="35" width="10" height="10" transform="rotate(0,100,40)" />
            <rect x="95" y="55" width="10" height="10" transform="rotate(0,100,60)" />
            <rect x="95" y="75" width="10" height="10" transform="rotate(0,100,80)" />
            <rect x="95" y="95" width="10" height="10" transform="rotate(0,100,100)" />
            <rect x="95" y="115" width="10" height="10" transform="rotate(0,100,120)" />
            <rect x="95" y="135" width="10" height="10" transform="rotate(0,100,140)" />
            <rect x="95" y="145" width="10" height="10" transform="rotate(0,100,150)" />
            <rect x="95" y="155" width="10" height="10" transform="rotate(0,100,160)" />
            <rect x="95" y="185" width="10" height="10" transform="rotate(0,100,190)" />
            <rect x="95" y="195" width="10" height="10" transform="rotate(0,100,200)" />
            <rect x="95" y="235" width="10" height="10" transform="rotate(0,100,240)" />
            <rect x="95" y="245" width="10" height="10" transform="rotate(0,100,250)" />
            <rect x="95" y="255" width="10" height="10" transform="rotate(0,100,260)" />
            <rect x="95" y="275" width="10" height="10" transform="rotate(0,100,280)" />
            <rect x="105" y="25" width="10" height="10" transform="rotate(0,110,30)" />
            <rect x="105" y="35" width="10" height="10" transform="rotate(0,110,40)" />
            <rect x="105" y="65" width="10" height="10" transform="rotate(0,110,70)" />
            <rect x="105" y="75" width="10" height="10" transform="rotate(0,110,80)" />
            <rect x="105" y="105" width="10" height="10" transform="rotate(0,110,110)" />
            <rect x="105" y="125" width="10" height="10" transform="rotate(0,110,130)" />
            <rect x="105" y="135" width="10" height="10" transform="rotate(0,110,140)" />
            <rect x="105" y="175" width="10" height="10" transform="rotate(0,110,180)" />
            <rect x="105" y="205" width="10" height="10" transform="rotate(0,110,210)" />
            <rect x="105" y="215" width="10" height="10" transform="rotate(0,110,220)" />
            <rect x="105" y="225" width="10" height="10" transform="rotate(0,110,230)" />
            <rect x="105" y="255" width="10" height="10" transform="rotate(0,110,260)" />
            <rect x="115" y="35" width="10" height="10" transform="rotate(0,120,40)" />
            <rect x="115" y="45" width="10" height="10" transform="rotate(0,120,50)" />
            <rect x="115" y="75" width="10" height="10" transform="rotate(0,120,80)" />
            <rect x="115" y="85" width="10" height="10" transform="rotate(0,120,90)" />
            <rect x="115" y="95" width="10" height="10" transform="rotate(0,120,100)" />
            <rect x="115" y="115" width="10" height="10" transform="rotate(0,120,120)" />
            <rect x="115" y="125" width="10" height="10" transform="rotate(0,120,130)" />
            <rect x="115" y="145" width="10" height="10" transform="rotate(0,120,150)" />
            <rect x="115" y="175" width="10" height="10" transform="rotate(0,120,180)" />
            <rect x="115" y="195" width="10" height="10" transform="rotate(0,120,200)" />
            <rect x="115" y="255" width="10" height="10" transform="rotate(0,120,260)" />
            <rect x="115" y="285" width="10" height="10" transform="rotate(0,120,290)" />
            <rect x="125" y="15" width="10" height="10" transform="rotate(0,130,20)" />
            <rect x="125" y="25" width="10" height="10" transform="rotate(0,130,30)" />
            <rect x="125" y="55" width="10" height="10" transform="rotate(0,130,60)" />
            <rect x="125" y="65" width="10" height="10" transform="rotate(0,130,70)" />
            <rect x="125" y="85" width="10" height="10" transform="rotate(0,130,90)" />
            <rect x="125" y="105" width="10" height="10" transform="rotate(0,130,110)" />
            <rect x="125" y="115" width="10" height="10" transform="rotate(0,130,120)" />
            <rect x="125" y="125" width="10" height="10" transform="rotate(0,130,130)" />
            <rect x="125" y="135" width="10" height="10" transform="rotate(0,130,140)" />
            <rect x="125" y="145" width="10" height="10" transform="rotate(0,130,150)" />
            <rect x="125" y="185" width="10" height="10" transform="rotate(0,130,190)" />
            <rect x="125" y="195" width="10" height="10" transform="rotate(0,130,200)" />
            <rect x="125" y="205" width="10" height="10" transform="rotate(0,130,210)" />
            <rect x="125" y="215" width="10" height="10" transform="rotate(0,130,220)" />
            <rect x="125" y="225" width="10" height="10" transform="rotate(0,130,230)" />
            <rect x="125" y="255" width="10" height="10" transform="rotate(0,130,260)" />
            <rect x="125" y="275" width="10" height="10" transform="rotate(0,130,280)" />
            <rect x="135" y="5" width="10" height="10" transform="rotate(0,140,10)" />
            <rect x="135" y="15" width="10" height="10" transform="rotate(0,140,20)" />
            <rect x="135" y="35" width="10" height="10" transform="rotate(0,140,40)" />
            <rect x="135" y="55" width="10" height="10" transform="rotate(0,140,60)" />
            <rect x="135" y="95" width="10" height="10" transform="rotate(0,140,100)" />
            <rect x="135" y="105" width="10" height="10" transform="rotate(0,140,110)" />
            <rect x="135" y="115" width="10" height="10" transform="rotate(0,140,120)" />
            <rect x="135" y="135" width="10" height="10" transform="rotate(0,140,140)" />
            <rect x="135" y="155" width="10" height="10" transform="rotate(0,140,160)" />
            <rect x="135" y="165" width="10" height="10" transform="rotate(0,140,170)" />
            <rect x="135" y="175" width="10" height="10" transform="rotate(0,140,180)" />
            <rect x="135" y="185" width="10" height="10" transform="rotate(0,140,190)" />
            <rect x="135" y="205" width="10" height="10" transform="rotate(0,140,210)" />
            <rect x="135" y="225" width="10" height="10" transform="rotate(0,140,230)" />
            <rect x="135" y="245" width="10" height="10" transform="rotate(0,140,250)" />
            <rect x="135" y="265" width="10" height="10" transform="rotate(0,140,270)" />
            <rect x="135" y="285" width="10" height="10" transform="rotate(0,140,290)" />
            <rect x="145" y="15" width="10" height="10" transform="rotate(0,150,20)" />
            <rect x="145" y="35" width="10" height="10" transform="rotate(0,150,40)" />
            <rect x="145" y="55" width="10" height="10" transform="rotate(0,150,60)" />
            <rect x="145" y="65" width="10" height="10" transform="rotate(0,150,70)" />
            <rect x="145" y="75" width="10" height="10" transform="rotate(0,150,80)" />
            <rect x="145" y="85" width="10" height="10" transform="rotate(0,150,90)" />
            <rect x="145" y="95" width="10" height="10" transform="rotate(0,150,100)" />
            <rect x="145" y="105" width="10" height="10" transform="rotate(0,150,110)" />
            <rect x="145" y="125" width="10" height="10" transform="rotate(0,150,130)" />
            <rect x="145" y="145" width="10" height="10" transform="rotate(0,150,150)" />
            <rect x="145" y="155" width="10" height="10" transform="rotate(0,150,160)" />
            <rect x="145" y="165" width="10" height="10" transform="rotate(0,150,170)" />
            <rect x="145" y="175" width="10" height="10" transform="rotate(0,150,180)" />
            <rect x="145" y="195" width="10" height="10" transform="rotate(0,150,200)" />
            <rect x="145" y="205" width="10" height="10" transform="rotate(0,150,210)" />
            <rect x="145" y="225" width="10" height="10" transform="rotate(0,150,230)" />
            <rect x="145" y="235" width="10" height="10" transform="rotate(0,150,240)" />
            <rect x="145" y="255" width="10" height="10" transform="rotate(0,150,260)" />
            <rect x="145" y="285" width="10" height="10" transform="rotate(0,150,290)" />
            <rect x="155" y="5" width="10" height="10" transform="rotate(0,160,10)" />
            <rect x="155" y="15" width="10" height="10" transform="rotate(0,160,20)" />
            <rect x="155" y="45" width="10" height="10" transform="rotate(0,160,50)" />
            <rect x="155" y="75" width="10" height="10" transform="rotate(0,160,80)" />
            <rect x="155" y="105" width="10" height="10" transform="rotate(0,160,110)" />
            <rect x="155" y="155" width="10" height="10" transform="rotate(0,160,160)" />
            <rect x="155" y="175" width="10" height="10" transform="rotate(0,160,180)" />
            <rect x="155" y="185" width="10" height="10" transform="rotate(0,160,190)" />
            <rect x="155" y="205" width="10" height="10" transform="rotate(0,160,210)" />
            <rect x="155" y="225" width="10" height="10" transform="rotate(0,160,230)" />
            <rect x="155" y="245" width="10" height="10" transform="rotate(0,160,250)" />
            <rect x="155" y="255" width="10" height="10" transform="rotate(0,160,260)" />
            <rect x="155" y="265" width="10" height="10" transform="rotate(0,160,270)" />
            <rect x="155" y="275" width="10" height="10" transform="rotate(0,160,280)" />
            <rect x="165" y="25" width="10" height="10" transform="rotate(0,170,30)" />
            <rect x="165" y="45" width="10" height="10" transform="rotate(0,170,50)" />
            <rect x="165" y="65" width="10" height="10" transform="rotate(0,170,70)" />
            <rect x="165" y="75" width="10" height="10" transform="rotate(0,170,80)" />
            <rect x="165" y="85" width="10" height="10" transform="rotate(0,170,90)" />
            <rect x="165" y="105" width="10" height="10" transform="rotate(0,170,110)" />
            <rect x="165" y="115" width="10" height="10" transform="rotate(0,170,120)" />
            <rect x="165" y="125" width="10" height="10" transform="rotate(0,170,130)" />
            <rect x="165" y="155" width="10" height="10" transform="rotate(0,170,160)" />
            <rect x="165" y="165" width="10" height="10" transform="rotate(0,170,170)" />
            <rect x="165" y="175" width="10" height="10" transform="rotate(0,170,180)" />
            <rect x="165" y="235" width="10" height="10" transform="rotate(0,170,240)" />
            <rect x="165" y="245" width="10" height="10" transform="rotate(0,170,250)" />
            <rect x="165" y="255" width="10" height="10" transform="rotate(0,170,260)" />
            <rect x="165" y="275" width="10" height="10" transform="rotate(0,170,280)" />
            <rect x="175" y="5" width="10" height="10" transform="rotate(0,180,10)" />
            <rect x="175" y="35" width="10" height="10" transform="rotate(0,180,40)" />
            <rect x="175" y="45" width="10" height="10" transform="rotate(0,180,50)" />
            <rect x="175" y="55" width="10" height="10" transform="rotate(0,180,60)" />
            <rect x="175" y="85" width="10" height="10" transform="rotate(0,180,90)" />
            <rect x="175" y="95" width="10" height="10" transform="rotate(0,180,100)" />
            <rect x="175" y="105" width="10" height="10" transform="rotate(0,180,110)" />
            <rect x="175" y="165" width="10" height="10" transform="rotate(0,180,170)" />
            <rect x="175" y="185" width="10" height="10" transform="rotate(0,180,190)" />
            <rect x="175" y="195" width="10" height="10" transform="rotate(0,180,200)" />
            <rect x="175" y="205" width="10" height="10" transform="rotate(0,180,210)" />
            <rect x="175" y="215" width="10" height="10" transform="rotate(0,180,220)" />
            <rect x="175" y="225" width="10" height="10" transform="rotate(0,180,230)" />
            <rect x="175" y="245" width="10" height="10" transform="rotate(0,180,250)" />
            <rect x="175" y="255" width="10" height="10" transform="rotate(0,180,260)" />
            <rect x="175" y="265" width="10" height="10" transform="rotate(0,180,270)" />
            <rect x="185" y="5" width="10" height="10" transform="rotate(0,190,10)" />
            <rect x="185" y="15" width="10" height="10" transform="rotate(0,190,20)" />
            <rect x="185" y="35" width="10" height="10" transform="rotate(0,190,40)" />
            <rect x="185" y="55" width="10" height="10" transform="rotate(0,190,60)" />
            <rect x="185" y="65" width="10" height="10" transform="rotate(0,190,70)" />
            <rect x="185" y="85" width="10" height="10" transform="rotate(0,190,90)" />
            <rect x="185" y="105" width="10" height="10" transform="rotate(0,190,110)" />
            <rect x="185" y="115" width="10" height="10" transform="rotate(0,190,120)" />
            <rect x="185" y="135" width="10" height="10" transform="rotate(0,190,140)" />
            <rect x="185" y="155" width="10" height="10" transform="rotate(0,190,160)" />
            <rect x="185" y="175" width="10" height="10" transform="rotate(0,190,180)" />
            <rect x="185" y="195" width="10" height="10" transform="rotate(0,190,200)" />
            <rect x="185" y="245" width="10" height="10" transform="rotate(0,190,250)" />
            <rect x="185" y="265" width="10" height="10" transform="rotate(0,190,270)" />
            <rect x="185" y="285" width="10" height="10" transform="rotate(0,190,290)" />
            <rect x="195" y="5" width="10" height="10" transform="rotate(0,200,10)" />
            <rect x="195" y="15" width="10" height="10" transform="rotate(0,200,20)" />
            <rect x="195" y="55" width="10" height="10" transform="rotate(0,200,60)" />
            <rect x="195" y="75" width="10" height="10" transform="rotate(0,200,80)" />
            <rect x="195" y="95" width="10" height="10" transform="rotate(0,200,100)" />
            <rect x="195" y="105" width="10" height="10" transform="rotate(0,200,110)" />
            <rect x="195" y="135" width="10" height="10" transform="rotate(0,200,140)" />
            <rect x="195" y="145" width="10" height="10" transform="rotate(0,200,150)" />
            <rect x="195" y="195" width="10" height="10" transform="rotate(0,200,200)" />
            <rect x="195" y="215" width="10" height="10" transform="rotate(0,200,220)" />
            <rect x="195" y="225" width="10" height="10" transform="rotate(0,200,230)" />
            <rect x="195" y="235" width="10" height="10" transform="rotate(0,200,240)" />
            <rect x="195" y="245" width="10" height="10" transform="rotate(0,200,250)" />
            <rect x="195" y="255" width="10" height="10" transform="rotate(0,200,260)" />
            <rect x="195" y="265" width="10" height="10" transform="rotate(0,200,270)" />
            <rect x="205" y="5" width="10" height="10" transform="rotate(0,210,10)" />
            <rect x="205" y="15" width="10" height="10" transform="rotate(0,210,20)" />
            <rect x="205" y="45" width="10" height="10" transform="rotate(0,210,50)" />
            <rect x="205" y="55" width="10" height="10" transform="rotate(0,210,60)" />
            <rect x="205" y="65" width="10" height="10" transform="rotate(0,210,70)" />
            <rect x="205" y="95" width="10" height="10" transform="rotate(0,210,100)" />
            <rect x="205" y="105" width="10" height="10" transform="rotate(0,210,110)" />
            <rect x="205" y="115" width="10" height="10" transform="rotate(0,210,120)" />
            <rect x="205" y="125" width="10" height="10" transform="rotate(0,210,130)" />
            <rect x="205" y="155" width="10" height="10" transform="rotate(0,210,160)" />
            <rect x="205" y="165" width="10" height="10" transform="rotate(0,210,170)" />
            <rect x="205" y="175" width="10" height="10" transform="rotate(0,210,180)" />
            <rect x="205" y="205" width="10" height="10" transform="rotate(0,210,210)" />
            <rect x="205" y="215" width="10" height="10" transform="rotate(0,210,220)" />
            <rect x="205" y="225" width="10" height="10" transform="rotate(0,210,230)" />
            <rect x="205" y="235" width="10" height="10" transform="rotate(0,210,240)" />
            <rect x="205" y="245" width="10" height="10" transform="rotate(0,210,250)" />
            <rect x="205" y="255" width="10" height="10" transform="rotate(0,210,260)" />
            <rect x="205" y="265" width="10" height="10" transform="rotate(0,210,270)" />
            <rect x="215" y="85" width="10" height="10" transform="rotate(0,220,90)" />
            <rect x="215" y="95" width="10" height="10" transform="rotate(0,220,100)" />
            <rect x="215" y="125" width="10" height="10" transform="rotate(0,220,130)" />
            <rect x="215" y="155" width="10" height="10" transform="rotate(0,220,160)" />
            <rect x="215" y="165" width="10" height="10" transform="rotate(0,220,170)" />
            <rect x="215" y="195" width="10" height="10" transform="rotate(0,220,200)" />
            <rect x="215" y="205" width="10" height="10" transform="rotate(0,220,210)" />
            <rect x="215" y="245" width="10" height="10" transform="rotate(0,220,250)" />
            <rect x="215" y="255" width="10" height="10" transform="rotate(0,220,260)" />
            <rect x="215" y="265" width="10" height="10" transform="rotate(0,220,270)" />
            <rect x="225" y="95" width="10" height="10" transform="rotate(0,230,100)" />
            <rect x="225" y="115" width="10" height="10" transform="rotate(0,230,120)" />
            <rect x="225" y="125" width="10" height="10" transform="rotate(0,230,130)" />
            <rect x="225" y="155" width="10" height="10" transform="rotate(0,230,160)" />
            <rect x="225" y="175" width="10" height="10" transform="rotate(0,230,180)" />
            <rect x="225" y="185" width="10" height="10" transform="rotate(0,230,190)" />
            <rect x="225" y="195" width="10" height="10" transform="rotate(0,230,200)" />
            <rect x="225" y="205" width="10" height="10" transform="rotate(0,230,210)" />
            <rect x="225" y="225" width="10" height="10" transform="rotate(0,230,230)" />
            <rect x="225" y="245" width="10" height="10" transform="rotate(0,230,250)" />
            <rect x="225" y="265" width="10" height="10" transform="rotate(0,230,270)" />
            <rect x="235" y="85" width="10" height="10" transform="rotate(0,240,90)" />
            <rect x="235" y="115" width="10" height="10" transform="rotate(0,240,120)" />
            <rect x="235" y="135" width="10" height="10" transform="rotate(0,240,140)" />
            <rect x="235" y="145" width="10" height="10" transform="rotate(0,240,150)" />
            <rect x="235" y="155" width="10" height="10" transform="rotate(0,240,160)" />
            <rect x="235" y="165" width="10" height="10" transform="rotate(0,240,170)" />
            <rect x="235" y="175" width="10" height="10" transform="rotate(0,240,180)" />
            <rect x="235" y="195" width="10" height="10" transform="rotate(0,240,200)" />
            <rect x="235" y="205" width="10" height="10" transform="rotate(0,240,210)" />
            <rect x="235" y="245" width="10" height="10" transform="rotate(0,240,250)" />
            <rect x="235" y="255" width="10" height="10" transform="rotate(0,240,260)" />
            <rect x="245" y="85" width="10" height="10" transform="rotate(0,250,90)" />
            <rect x="245" y="105" width="10" height="10" transform="rotate(0,250,110)" />
            <rect x="245" y="125" width="10" height="10" transform="rotate(0,250,130)" />
            <rect x="245" y="155" width="10" height="10" transform="rotate(0,250,160)" />
            <rect x="245" y="165" width="10" height="10" transform="rotate(0,250,170)" />
            <rect x="245" y="175" width="10" height="10" transform="rotate(0,250,180)" />
            <rect x="245" y="185" width="10" height="10" transform="rotate(0,250,190)" />
            <rect x="245" y="195" width="10" height="10" transform="rotate(0,250,200)" />
            <rect x="245" y="205" width="10" height="10" transform="rotate(0,250,210)" />
            <rect x="245" y="215" width="10" height="10" transform="rotate(0,250,220)" />
            <rect x="245" y="225" width="10" height="10" transform="rotate(0,250,230)" />
            <rect x="245" y="235" width="10" height="10" transform="rotate(0,250,240)" />
            <rect x="245" y="245" width="10" height="10" transform="rotate(0,250,250)" />
            <rect x="255" y="85" width="10" height="10" transform="rotate(0,260,90)" />
            <rect x="255" y="95" width="10" height="10" transform="rotate(0,260,100)" />
            <rect x="255" y="105" width="10" height="10" transform="rotate(0,260,110)" />
            <rect x="255" y="125" width="10" height="10" transform="rotate(0,260,130)" />
            <rect x="255" y="135" width="10" height="10" transform="rotate(0,260,140)" />
            <rect x="255" y="165" width="10" height="10" transform="rotate(0,260,170)" />
            <rect x="255" y="235" width="10" height="10" transform="rotate(0,260,240)" />
            <rect x="255" y="275" width="10" height="10" transform="rotate(0,260,280)" />
            <rect x="265" y="95" width="10" height="10" transform="rotate(0,270,100)" />
            <rect x="265" y="135" width="10" height="10" transform="rotate(0,270,140)" />
            <rect x="265" y="165" width="10" height="10" transform="rotate(0,270,170)" />
            <rect x="265" y="185" width="10" height="10" transform="rotate(0,270,190)" />
            <rect x="265" y="205" width="10" height="10" transform="rotate(0,270,210)" />
            <rect x="265" y="215" width="10" height="10" transform="rotate(0,270,220)" />
            <rect x="265" y="235" width="10" height="10" transform="rotate(0,270,240)" />
            <rect x="265" y="245" width="10" height="10" transform="rotate(0,270,250)" />
            <rect x="265" y="265" width="10" height="10" transform="rotate(0,270,270)" />
            <rect x="265" y="275" width="10" height="10" transform="rotate(0,270,280)" />
            <rect x="265" y="285" width="10" height="10" transform="rotate(0,270,290)" />
            <rect x="275" y="85" width="10" height="10" transform="rotate(0,280,90)" />
            <rect x="275" y="95" width="10" height="10" transform="rotate(0,280,100)" />
            <rect x="275" y="115" width="10" height="10" transform="rotate(0,280,120)" />
            <rect x="275" y="125" width="10" height="10" transform="rotate(0,280,130)" />
            <rect x="275" y="135" width="10" height="10" transform="rotate(0,280,140)" />
            <rect x="275" y="145" width="10" height="10" transform="rotate(0,280,150)" />
            <rect x="275" y="155" width="10" height="10" transform="rotate(0,280,160)" />
            <rect x="275" y="205" width="10" height="10" transform="rotate(0,280,210)" />
            <rect x="275" y="245" width="10" height="10" transform="rotate(0,280,250)" />
            <rect x="275" y="265" width="10" height="10" transform="rotate(0,280,270)" />
            <rect x="275" y="285" width="10" height="10" transform="rotate(0,280,290)" />
            <rect x="285" y="95" width="10" height="10" transform="rotate(0,290,100)" />
            <rect x="285" y="115" width="10" height="10" transform="rotate(0,290,120)" />
            <rect x="285" y="125" width="10" height="10" transform="rotate(0,290,130)" />
            <rect x="285" y="135" width="10" height="10" transform="rotate(0,290,140)" />
            <rect x="285" y="145" width="10" height="10" transform="rotate(0,290,150)" />
            <rect x="285" y="165" width="10" height="10" transform="rotate(0,290,170)" />
            <rect x="285" y="195" width="10" height="10" transform="rotate(0,290,200)" />
            <rect x="285" y="205" width="10" height="10" transform="rotate(0,290,210)" />
            <rect x="285" y="215" width="10" height="10" transform="rotate(0,290,220)" />
            <rect x="285" y="235" width="10" height="10" transform="rotate(0,290,240)" />
            <rect x="285" y="245" width="10" height="10" transform="rotate(0,290,250)" />
            <rect x="285" y="255" width="10" height="10" transform="rotate(0,290,260)" />
          </g>
          <g class="green-dots" />
          <g class="corners-square-color-0-0">
            <path clip-rule="evenodd"
              d="M 5 15v 50a 10 10, 0, 0, 0, 10 10h 50a 10 10, 0, 0, 0, 10 -10v -50a 10 10, 0, 0, 0, -10 -10h -50a 10 10, 0, 0, 0, -10 10zM 20 15h 40a 5 5, 0, 0, 1, 5 5v 40a 5 5, 0, 0, 1, -5 5h -40a 5 5, 0, 0, 1, -5 -5v -40a 5 5, 0, 0, 1, 5 -5z"
              transform="rotate(0,40,40)" />
          </g>
          <g class="corners-dot-color-0-0">
            <rect x="25" y="25" width="30" height="30" rx="7.5" ry="7.5" transform="rotate(0,40,40)" />
          </g>
          <g class="corners-square-color-1-0">
            <path clip-rule="evenodd"
              d="M 225 15v 50a 10 10, 0, 0, 0, 10 10h 50a 10 10, 0, 0, 0, 10 -10v -50a 10 10, 0, 0, 0, -10 -10h -50a 10 10, 0, 0, 0, -10 10zM 240 15h 40a 5 5, 0, 0, 1, 5 5v 40a 5 5, 0, 0, 1, -5 5h -40a 5 5, 0, 0, 1, -5 -5v -40a 5 5, 0, 0, 1, 5 -5z"
              transform="rotate(90,260,40)" />
          </g>
          <g class="corners-dot-color-1-0">
            <rect x="245" y="25" width="30" height="30" rx="7.5" ry="7.5" transform="rotate(90,260,40)" />
          </g>
          <g class="corners-square-color-0-1">
            <path clip-rule="evenodd"
              d="M 5 235v 50a 10 10, 0, 0, 0, 10 10h 50a 10 10, 0, 0, 0, 10 -10v -50a 10 10, 0, 0, 0, -10 -10h -50a 10 10, 0, 0, 0, -10 10zM 20 235h 40a 5 5, 0, 0, 1, 5 5v 40a 5 5, 0, 0, 1, -5 5h -40a 5 5, 0, 0, 1, -5 -5v -40a 5 5, 0, 0, 1, 5 -5z"
              transform="rotate(-90,40,260)" />
          </g>
          <g class="corners-dot-color-0-1">
            <rect x="25" y="245" width="30" height="30" rx="7.5" ry="7.5" transform="rotate(-90,40,260)" />
          </g>
        </svg></g>
    </g>
  </svg></svg>