<svg xmlns="http://www.w3.org/2000/svg" viewBox="0 0 1500 1500" class="w-full h-auto">
  <g transform="matrix(.9 0 0 .9 100 -50)">
    <defs>
      <style>
        .cls-2bir1 {
          fill: #ff9ff8
        }
      </style>
    </defs>

    <!-- Phần khung nền (Background Frame) -->
    <path
      d="M437.33 1268.04c-64.46 0-116.72-52.26-116.72-116.72V478.79c0-11.33-8.99-20.62-20.31-20.99-11.86-.39-21.69 9.12-21.69 20.99v672.53c0 87.66 71.06 158.72 158.72 158.72h69.45c11.6 0 21-9.4 21-21s-9.4-21-21-21h-69.45Zm853.72-811.72c0-87.66-71.06-158.72-158.72-158.72H682.67c-11.47 0-20.81 9.2-21 20.66-.19 11.73 9.27 21.34 21 21.34h449.66c64.46 0 116.72 52.26 116.72 116.72v673.03c0 11.6 9.4 21 21 21s21-9.4 21-21V456.32Z"
      style="fill:#ff9ff8" />
    <path
      d="M646.23 1332.69c-5.89 0-13.35-1.09-22.4-3.27-5.67 1.53-10.95 2.29-15.86 2.29s-7.74-.16-8.5-.49c.76-6.54 4.01-22.64 9.73-48.31 5.72-25.67 8.58-41.77 8.58-48.31 0-1.31-.71-3.05-2.12-5.23-1.42-2.18-2.84-4.03-4.25-5.56l-2.13-2.29.49-2.45c14.28-2.94 29.65-4.41 46.1-4.41 9.05 0 16.48 2.15 22.32 6.46 5.83 4.31 8.75 10.33 8.75 18.07 0 14.93-9.1 25.29-27.3 31.06 7.3.87 13.43 3.62 18.39 8.26 4.96 4.63 7.44 11.15 7.44 19.54 0 10.25-3.71 18.58-11.12 25.01-7.41 6.43-16.79 9.65-28.12 9.65Zm-2.94-58.04c-3.05 0-5.78.27-8.17.82-4.69 20.71-7.68 35.15-8.99 43.32 2.72 1.85 7 2.78 12.83 2.78s10.82-2.31 14.96-6.95c4.14-4.63 6.21-11.31 6.21-20.03 0-13.3-5.62-19.95-16.84-19.95Zm9.15-49.86c-4.14 0-6.6.38-7.36 1.14-1.53 9.81-4.03 22.67-7.52 38.58 4.36 0 7.41-.27 9.16-.82 1.74-.54 3.29-1.25 4.66-2.13 1.36-.87 2.92-2.23 4.66-4.09 3.81-4.03 5.72-10.49 5.72-19.37s-3.11-13.32-9.32-13.32Zm90.08 38.25c.22-.22.82-1.64 1.8-4.25 5.12 0 11.99 1.53 20.6 4.58-2.73 9.05-4.9 18.5-6.54 28.37-1.63 9.87-2.45 16.9-2.45 21.09s.43 6.29 1.31 6.29c.65 0 3.05-1.03 7.19-3.11l1.96-.98 2.94 5.72c-.98.87-2.26 1.96-3.84 3.27s-4.55 3.08-8.91 5.31c-4.36 2.23-8.28 3.35-11.77 3.35-6.76 0-10.68-3.05-11.77-9.15-6.98 6.1-13.27 9.15-18.88 9.15s-10.36-2.18-14.22-6.54c-3.87-4.36-5.8-11.23-5.8-20.6 0-14.6 3-26.13 8.99-34.58s13.24-12.67 21.74-12.67c6.1 0 11.99 1.58 17.66 4.74Zm-18.64 55.75c2.62 0 5.56-1.03 8.83-3.11.76-15.37 3.32-30.57 7.68-45.61-3.27-1.41-6.05-2.12-8.34-2.12-3.92 0-7.27 3.84-10.05 11.53-2.78 7.68-4.17 16.16-4.17 25.42s2.02 13.9 6.05 13.9Zm90.74-102.18c0 8.28-2.78 24.52-8.34 48.72 6.54-4.69 12.45-7.03 17.74-7.03s9.81 2.21 13.57 6.62 5.64 11.15 5.64 20.19c0 15.15-2.97 26.87-8.91 35.15-5.94 8.28-13.16 12.43-21.66 12.43-3.16 0-6.35-.38-9.56-1.14-3.22-.76-5.64-1.58-7.27-2.45l-2.45-1.14c-6.98 2.4-13.79 3.6-20.44 3.6-.65-.55-.98-3.19-.98-7.93s3.05-20.44 9.16-47.08c6.1-26.65 9.16-44.88 9.16-54.69 0-1.74-.27-3.98-.82-6.7 8.5-2.94 16.62-4.41 24.36-4.41.54 1.53.82 3.49.82 5.89Zm-1.47 55.59c-2.07 0-5.18.98-9.32 2.94-5.01 21.15-7.74 36.29-8.17 45.45 3.27 1.42 6.38 2.13 9.32 2.13 4.14 0 7.6-3.81 10.38-11.44 2.78-7.63 4.17-16.05 4.17-25.26s-2.12-13.81-6.38-13.81Zm51.99 59.18c-9.15 0-13.73-5.01-13.73-15.04 0-2.4 1.09-9.32 3.27-20.76 2.18-11.44 3.27-20.98 3.27-28.61 0-1.63-.22-3.16-.65-4.58 5.89-2.29 13.95-3.43 24.2-3.43.54 1.53.82 4.14.82 7.85s-1.2 11.39-3.6 23.05c-2.4 11.66-3.6 19.18-3.6 22.56s1.41 5.07 4.25 5.07c3.38 0 7.46-1.69 12.26-5.07.54-6.43 2.72-23.38 6.54-50.85 3.81-1.52 10.68-2.29 20.6-2.29h3.11c-2.07 8.17-4.09 19.95-6.05 35.31-1.96 15.37-3.54 26.05-4.74 32.04-2.29 11.99-6.51 21.77-12.67 29.35-6.16 7.57-14.2 11.36-24.11 11.36-3.92 0-7.5-1.04-10.71-3.11-3.22-2.07-4.82-4.74-4.82-8.01 0-4.36 2.67-8.34 8.01-11.93 5.34-3.6 12.53-6.38 21.58-8.34.98-4.8 1.74-9.43 2.29-13.9-8.83 6.21-17.33 9.32-25.5 9.32Zm7.93 17c-3.65 2.18-5.48 4.3-5.48 6.38s1.17 3.11 3.52 3.11 4.99-1.12 7.93-3.35c2.94-2.24 5.39-5.86 7.36-10.87-5.23.98-9.67 2.56-13.32 4.74Zm116.48 18.97c-5.45 0-9.97-1.34-13.57-4.01-3.6-2.67-5.39-6.35-5.39-11.03 0-12.54 12.81-20.76 38.42-24.69.98-3.6 1.74-7.08 2.29-10.46-5.02 3.05-10.3 4.58-15.86 4.58-10.14 0-18.31-3.68-24.52-11.04-6.21-7.36-9.32-16.92-9.32-28.69s2.29-22.67 6.87-32.7c4.58-10.03 11.14-18.31 19.7-24.85 8.55-6.54 17.66-9.81 27.3-9.81s17.55 2.37 23.71 7.11 9.24 10.76 9.24 18.06c0 4.36-.76 7.9-2.29 10.63-.87.11-2.07.16-3.6.16-8.39 0-14.71-1.36-18.96-4.09l.16-17.66c-2.62-2.29-6.05-3.43-10.3-3.43-6.65 0-12.53 5.1-17.66 15.29-5.12 10.19-7.68 22.59-7.68 37.19 0 9.7 1.58 16.84 4.74 21.42 3.16 4.58 6.92 6.87 11.28 6.87 6.54 0 12.43-3.27 17.66-9.81 5.23-6.54 8.99-14.33 11.28-23.38l8.83 1.47c-4.14 31.17-10.41 54.44-18.8 69.81-8.39 15.37-19.56 23.05-33.51 23.05Zm-8.34-15.53c0 3.05 2.56 4.58 7.68 4.58 2.62 0 5.72-1.61 9.32-4.82 3.6-3.22 6.32-7.39 8.17-12.51-6.32.54-12.1 1.99-17.33 4.33-5.23 2.34-7.85 5.15-7.85 8.42Zm103.49-83.38c0 4.58-1.47 12.45-4.41 23.62-2.94 11.17-4.41 18.47-4.41 21.91s.49 5.15 1.47 5.15c.65 0 3.16-1.03 7.52-3.11l1.96-.98 2.78 5.72c-.98.87-2.29 1.96-3.92 3.27s-4.69 3.08-9.15 5.31c-4.47 2.23-8.61 3.35-12.43 3.35s-6.81-1.17-8.99-3.51c-2.18-2.34-3.27-5.5-3.27-9.48s1.36-11.06 4.09-21.25c2.72-10.19 4.09-16.81 4.09-19.86 0-4.58-1.42-8.88-4.25-12.92l-1.47-1.96.16-2.13c5.78-1.63 15.15-2.45 28.12-2.45 1.42 1.63 2.13 4.74 2.13 9.32Zm-18.64-27.22c-2.18-2.13-3.27-4.99-3.27-8.58s1.5-6.76 4.5-9.48c3-2.72 6.46-4.09 10.38-4.09s6.97 1.09 9.16 3.27c2.18 2.18 3.27 5.04 3.27 8.58s-1.55 6.68-4.66 9.4c-3.11 2.73-6.57 4.09-10.38 4.09s-6.81-1.06-8.99-3.19Zm32.53 90h-1.14c-.22-.87-.33-2.86-.33-5.97s1.47-11.47 4.41-25.1c2.94-13.62 4.41-21.42 4.41-23.38 0-3.38-1.53-7.08-4.58-11.12l-1.47-1.96.16-2.13c5.89-1.63 15.31-2.45 28.28-2.45 1.31 2.84 1.96 6.81 1.96 11.93 1.2-1.96 3.7-4.58 7.52-7.85 3.81-3.27 7.74-4.9 11.77-4.9 5.89 0 8.83 5.12 8.83 15.37-.55.65-1.28 1.5-2.21 2.53-.93 1.04-2.78 2.48-5.56 4.33s-5.48 3-8.09 3.43c-.11 0-1.04-1.47-2.78-4.41-1.74-2.94-3.05-4.41-3.92-4.41-2.73.98-5.12 2.62-7.19 4.9-5.01 22.56-7.52 37.17-7.52 43.82 0 2.4.05 4.09.16 5.07-3.82 1.53-11.39 2.29-22.73 2.29Zm68.91 1.47c-3.76 0-6.87-1.25-9.32-3.76s-3.68-6.02-3.68-10.55 2.7-18.96 8.09-43.32 8.09-41.94 8.09-52.73l-.98-7.19c8.5-2.94 16.46-4.41 23.87-4.41 1.09 1.53 1.64 4.2 1.64 8.01 0 8.72-2.75 25.59-8.26 50.6-5.5 25.01-8.26 39.56-8.26 43.65s.49 6.13 1.47 6.13l11.44-4.09 2.94 5.72c-3.71 2.94-8.2 5.67-13.49 8.17-5.29 2.51-9.81 3.76-13.57 3.76Zm34.25-3.19c-2.18-2.13-3.27-4.99-3.27-8.58s1.5-6.76 4.5-9.48c3-2.72 6.46-4.09 10.38-4.09s6.97 1.09 9.16 3.27c2.18 2.18 3.27 5.04 3.27 8.58s-1.55 6.68-4.66 9.4-6.57 4.09-10.38 4.09-6.81-1.06-8.99-3.19Zm38.75-107.33c0 10.79-3.54 27.74-10.63 50.84-.55 1.85-1.55 5.21-3.02 10.05-1.47 4.85-2.59 8.58-3.35 11.2-2.94.98-5.53 1.47-7.77 1.47s-4.22-.11-5.97-.33c3.92-23.65 5.89-44.52 5.89-62.62l-.98-13.73c9.26-2.94 17.55-4.41 24.85-4.41.65.98.98 3.49.98 7.52ZM447.44 351.71c4.9 13.34 19.7 10.21 31.14 28.08 7.9 12.35 13.44 33.56 1.51 47.63-12.39 14.61-36.6 13.27-40.84 12.96-36.13-2.66-57.85-36.56-64.99-47.7-4.73-7.39-41.24-64.36-9.58-105.26 15.58-20.13 49.06-38.16 74.56-28.08 13.54 5.35 24.7 18.58 26.88 32.75 4.09 26.56-25.94 39.88-18.69 59.62Z"
      class="cls-2bir1" />
    <ellipse cx="444.55" cy="229.14" class="cls-2bir1" rx="23.26" ry="21.47"
      transform="rotate(-73.15 444.525 229.14)" />
    <ellipse cx="400.93" cy="237.94" class="cls-2bir1" rx="16.49" ry="18.15"
      transform="rotate(-26.34 400.94 237.948)" />
    <ellipse cx="368.93" cy="254.62" class="cls-2bir1" rx="13.59" ry="14.96"
      transform="rotate(-26.34 368.933 254.62)" />
    <ellipse cx="348.02" cy="278.02" class="cls-2bir1" rx="11.22" ry="13.42"
      transform="rotate(-53.57 348.062 278.03)" />
    <ellipse cx="337.13" cy="302.16" class="cls-2bir1" rx="9.31" ry="11.75" transform="rotate(-66.65 337.12 302.16)" />
    <path
      d="M529.63 278.34c-4.9 13.34-19.7 10.21-31.14 28.08-7.9 12.35-13.44 33.56-1.51 47.63 12.39 14.61 36.6 13.27 40.84 12.96 36.13-2.66 57.85-36.56 64.99-47.7 4.73-7.39 41.24-64.36 9.58-105.26-15.58-20.13-49.06-38.16-74.56-28.08-13.54 5.35-24.7 18.58-26.88 32.75-4.09 26.56 25.94 39.88 18.69 59.62Z"
      class="cls-2bir1" />
    <ellipse cx="532.52" cy="155.77" class="cls-2bir1" rx="21.47" ry="23.26"
      transform="rotate(-16.85 532.629 155.787)" />
    <ellipse cx="576.14" cy="164.57" class="cls-2bir1" rx="18.15" ry="16.49"
      transform="rotate(-63.66 576.134 164.572)" />
    <ellipse cx="608.14" cy="181.25" class="cls-2bir1" rx="14.96" ry="13.59"
      transform="rotate(-63.66 608.132 181.243)" />
    <ellipse cx="629.05" cy="204.65" class="cls-2bir1" rx="13.42" ry="11.22"
      transform="rotate(-36.43 628.97 204.653)" />
    <ellipse cx="639.94" cy="228.79" class="cls-2bir1" rx="11.75" ry="9.31"
      transform="rotate(-23.35 639.998 228.803)" />

    <!-- QR Code đã được chèn và căn chỉnh -->
    <svg x="400" y="500" width="750" height="650" viewBox="0 0 300 300">
      <defs>
        <clipPath id="a">
          <circle cx="9.5" cy="65.5" r="3.5" />
          <path
            d="M6 83h7v-7H9.5A3.5 3.5 0 0 0 6 79.5M13 90v-7H6v3.5A3.5 3.5 0 0 0 9.5 90M13 111v-7H9.5a3.5 3.5 0 0 0 0 7M6 132h7v-7H9.5a3.5 3.5 0 0 0-3.5 3.5M6 132h7v7H6zM13 139H6v3.5a3.5 3.5 0 0 0 7 0" />
          <circle cx="9.5" cy="163.5" r="3.5" />
          <path
            d="M6 181h7v-3.5a3.5 3.5 0 0 0-7 0M6 181h7v7H6zM6 188h7v7H6zM13 202v-7H6v3.5a3.5 3.5 0 0 0 3.5 3.5M6 230h7v-3.5a3.5 3.5 0 0 0-7 0M13 237v-7H6v3.5a3.5 3.5 0 0 0 3.5 3.5M13 76v7h7v-3.5a3.5 3.5 0 0 0-3.5-3.5M13 83h7v7h-7zM13 104h7v7h-7zM13 125h7v7h-7zM13 132h7v7h-7zM13 153h7v-3.5a3.5 3.5 0 0 0-7 0M20 153h-7v3.5a3.5 3.5 0 0 0 7 0M20 174v-7h-3.5a3.5 3.5 0 0 0 0 7M13 181h7v7h-7zM13 188h7v7h-7zM13 195h7v7h-7zM13 202h7v7h-7zM20 216v-7h-7v3.5a3.5 3.5 0 0 0 3.5 3.5M13 230h7v7h-7zM20 69h7v-7h-3.5a3.5 3.5 0 0 0-3.5 3.5M27 69h-7v3.5a3.5 3.5 0 0 0 7 0M20 83h7v7h-7zM27 90h-7v3.5a3.5 3.5 0 0 0 7 0M20 104h7v7h-7zM27 111h-7v3.5a3.5 3.5 0 0 0 7 0M20 125h7v7h-7zM20 132h7v7h-7zM27 146v-7h-7v3.5a3.5 3.5 0 0 0 3.5 3.5M20 167v7h7v-3.5a3.5 3.5 0 0 0-3.5-3.5M20 174h7v7h-7zM20 181h7v7h-7zM20 195h7v7h-7zM20 209h7v7h-7zM20 230v7h3.5a3.5 3.5 0 0 0 0-7M27 62v7h3.5a3.5 3.5 0 0 0 0-7M27 83h7v-3.5a3.5 3.5 0 0 0-7 0M34 83h-7v7h3.5a3.5 3.5 0 0 0 3.5-3.5M27 104h7v-7h-3.5a3.5 3.5 0 0 0-3.5 3.5M34 104h-7v7h3.5a3.5 3.5 0 0 0 3.5-3.5M27 125h7v7h-7zM27 139h7v7h-7zM27 181v7h7v-3.5a3.5 3.5 0 0 0-3.5-3.5M27 188h7v7h-7zM27 195h7v7h-7zM27 209v7h3.5a3.5 3.5 0 0 0 0-7" />
          <circle cx="37.5" cy="72.5" r="3.5" />
          <path
            d="M34 97h7v-7h-3.5a3.5 3.5 0 0 0-3.5 3.5M34 97h7v7h-7zM34 125h7v-7h-3.5a3.5 3.5 0 0 0-3.5 3.5M34 125h7v7h-7zM34 132h7v7h-7zM34 139h7v7h-7zM41 153v-7h-7v3.5a3.5 3.5 0 0 0 3.5 3.5M41 167v-7h-3.5a3.5 3.5 0 0 0 0 7M34 188v7h7v-3.5a3.5 3.5 0 0 0-3.5-3.5M34 195h7v7h-7zM48 69v-7h-3.5a3.5 3.5 0 0 0 0 7M41 90h7v7h-7zM48 97h-7v7h3.5a3.5 3.5 0 0 0 3.5-3.5M41 118h7v7h-7zM48 125h-7v7h3.5a3.5 3.5 0 0 0 3.5-3.5M41 146h7v7h-7zM41 153h7v7h-7zM41 160h7v7h-7zM41 195v7h3.5a3.5 3.5 0 0 0 0-7M41 230h7v-3.5a3.5 3.5 0 0 0-7 0M48 237v-7h-7v3.5a3.5 3.5 0 0 0 3.5 3.5M48 62h7v7h-7z" />
          <circle cx="51.5" cy="79.5" r="3.5" />
          <path d="M48 90h7v7h-7z" />
          <circle cx="51.5" cy="107.5" r="3.5" />
          <path d="M48 118h7v7h-7z" />
          <circle cx="51.5" cy="135.5" r="3.5" />
          <path d="M48 146h7v7h-7zM48 160h7v7h-7zM55 181v-7h-3.5a3.5 3.5 0 0 0 0 7" />
          <circle cx="51.5" cy="191.5" r="3.5" />
          <circle cx="51.5" cy="205.5" r="3.5" />
          <path
            d="M55 223v-7h-3.5a3.5 3.5 0 0 0 0 7M48 230h7v7h-7zM55 62h7v7h-7zM62 76v-7h-7v3.5a3.5 3.5 0 0 0 3.5 3.5M55 90h7v7h-7zM62 104v-7h-7v3.5a3.5 3.5 0 0 0 3.5 3.5M55 118h7v-3.5a3.5 3.5 0 0 0-7 0M55 118h7v7h-7zM62 125h-7v3.5a3.5 3.5 0 0 0 7 0M55 146h7v-7h-3.5a3.5 3.5 0 0 0-3.5 3.5M62 146h-7v7h3.5a3.5 3.5 0 0 0 3.5-3.5M55 160v7h7v-3.5a3.5 3.5 0 0 0-3.5-3.5M55 167h7v7h-7zM55 174h7v7h-7z" />
          <circle cx="58.5" cy="198.5" r="3.5" />
          <path
            d="M55 216h7v-3.5a3.5 3.5 0 0 0-7 0M62 216h-7v7h3.5a3.5 3.5 0 0 0 3.5-3.5M55 230v7h3.5a3.5 3.5 0 0 0 0-7M69 20v-7h-3.5a3.5 3.5 0 0 0 0 7M69 34v-7h-3.5a3.5 3.5 0 0 0 0 7M62 48h7v-7h-3.5a3.5 3.5 0 0 0-3.5 3.5M62 48h7v7h-7zM62 55h7v7h-7zM62 62h7v7h-7zM62 69h7v7h-7zM62 76h7v7h-7zM62 83h7v7h-7zM62 90h7v7h-7zM62 97h7v7h-7zM69 111v-7h-7v3.5a3.5 3.5 0 0 0 3.5 3.5M62 139v7h3.5a3.5 3.5 0 0 0 0-7M62 174v7h7v-3.5a3.5 3.5 0 0 0-3.5-3.5M62 181h7v7h-7zM69 188h-7v3.5a3.5 3.5 0 0 0 7 0M69 209v-7h-3.5a3.5 3.5 0 0 0 0 7M62 244h7v-7h-3.5a3.5 3.5 0 0 0-3.5 3.5M62 244h7v7h-7zM69 251h-7v3.5a3.5 3.5 0 0 0 7 0M62 272h7v-7h-3.5a3.5 3.5 0 0 0-3.5 3.5M69 279v-7h-7v3.5a3.5 3.5 0 0 0 3.5 3.5M69 293v-7h-3.5a3.5 3.5 0 0 0 0 7M69 13h7V9.5a3.5 3.5 0 0 0-7 0M69 13h7v7h-7zM69 20h7v7h-7zM69 27h7v7h-7zM69 41v7h3.5a3.5 3.5 0 0 0 0-7M69 69h7v7h-7zM69 104v7h3.5a3.5 3.5 0 0 0 0-7" />
          <circle cx="72.5" cy="121.5" r="3.5" />
          <path d="M76 160v-7h-3.5a3.5 3.5 0 0 0 0 7" />
          <circle cx="72.5" cy="170.5" r="3.5" />
          <path
            d="M69 202h7v7h-7zM76 223v-7h-3.5a3.5 3.5 0 0 0 0 7M69 237h7v-3.5a3.5 3.5 0 0 0-7 0M69 237h7v7h-7zM76 244h-7v7h3.5a3.5 3.5 0 0 0 3.5-3.5M69 265h7v7h-7zM69 272h7v7h-7zM69 279h7v7h-7zM76 286h-7v7h3.5a3.5 3.5 0 0 0 3.5-3.5M76 20v7h7v-3.5a3.5 3.5 0 0 0-3.5-3.5M83 27h-7v7h3.5a3.5 3.5 0 0 0 3.5-3.5M76 55h7v-3.5a3.5 3.5 0 0 0-7 0M83 62v-7h-7v3.5a3.5 3.5 0 0 0 3.5 3.5M76 69h7v7h-7zM76 97h7v-7h-3.5a3.5 3.5 0 0 0-3.5 3.5M83 97h-7v3.5a3.5 3.5 0 0 0 7 0M83 118v-7h-3.5a3.5 3.5 0 0 0 0 7M76 132h7v-3.5a3.5 3.5 0 0 0-7 0M76 132h7v7h-7zM76 139h7v7h-7zM76 146h7v7h-7zM83 153h-7v7h3.5a3.5 3.5 0 0 0 3.5-3.5M76 202h7v7h-7zM76 216h7v7h-7zM83 223h-7v3.5a3.5 3.5 0 0 0 7 0M76 237v7h3.5a3.5 3.5 0 0 0 0-7M76 265v7h7v-3.5a3.5 3.5 0 0 0-3.5-3.5M76 272h7v7h-7zM83 279h-7v7h3.5a3.5 3.5 0 0 0 3.5-3.5M90 13V6h-3.5a3.5 3.5 0 0 0 0 7M83 55v7h3.5a3.5 3.5 0 0 0 0-7M83 69v7h3.5a3.5 3.5 0 0 0 0-7M83 90v7h3.5a3.5 3.5 0 0 0 0-7M83 111h7v-7h-3.5a3.5 3.5 0 0 0-3.5 3.5M83 111h7v7h-7zM90 118h-7v3.5a3.5 3.5 0 0 0 7 0M83 132h7v7h-7zM90 139h-7v7h3.5a3.5 3.5 0 0 0 3.5-3.5M83 167h7v-7h-3.5a3.5 3.5 0 0 0-3.5 3.5M83 167h7v7h-7zM83 174h7v7h-7zM90 188v-7h-7v3.5a3.5 3.5 0 0 0 3.5 3.5M83 202h7v-3.5a3.5 3.5 0 0 0-7 0M90 202h-7v7h3.5a3.5 3.5 0 0 0 3.5-3.5M83 216v7h3.5a3.5 3.5 0 0 0 0-7" />
          <circle cx="86.5" cy="254.5" r="3.5" />
          <path d="M83 272v7h3.5a3.5 3.5 0 0 0 0-7" />
          <circle cx="86.5" cy="289.5" r="3.5" />
          <path
            d="M90 6v7h3.5a3.5 3.5 0 0 0 0-7M90 41h7v-3.5a3.5 3.5 0 0 0-7 0M90 41h7v7h-7zM97 48h-7v3.5a3.5 3.5 0 0 0 7 0M97 83v-7h-3.5a3.5 3.5 0 0 0 0 7M90 104h7v7h-7zM90 132h7v7h-7zM90 160h7v7h-7zM90 167h7v7h-7zM90 174h7v7h-7zM90 181h7v7h-7zM97 195v-7h-7v3.5a3.5 3.5 0 0 0 3.5 3.5M97 216v-7h-3.5a3.5 3.5 0 0 0 0 7M90 230h7v-3.5a3.5 3.5 0 0 0-7 0M97 237v-7h-7v3.5a3.5 3.5 0 0 0 3.5 3.5M97 251v-7h-3.5a3.5 3.5 0 0 0 0 7M97 272v-7h-3.5a3.5 3.5 0 0 0 0 7M97 286v-7h-3.5a3.5 3.5 0 0 0 0 7M97 27h7v-7h-3.5a3.5 3.5 0 0 0-3.5 3.5M104 27h-7v3.5a3.5 3.5 0 0 0 7 0M104 62v-7h-3.5a3.5 3.5 0 0 0 0 7M97 76h7v7h-7zM104 90v-7h-7v3.5a3.5 3.5 0 0 0 3.5 3.5M97 104h7v7h-7zM97 125h7v-3.5a3.5 3.5 0 0 0-7 0M97 125h7v7h-7zM97 132h7v7h-7zM104 139h-7v3.5a3.5 3.5 0 0 0 7 0M97 160h7v-3.5a3.5 3.5 0 0 0-7 0M97 160h7v7h-7zM97 167h7v7h-7zM97 174h7v7h-7zM97 181h7v7h-7zM97 188h7v7h-7zM97 195h7v7h-7zM97 202h7v7h-7zM97 209h7v7h-7zM104 223v-7h-7v3.5a3.5 3.5 0 0 0 3.5 3.5M97 230v7h7v-3.5a3.5 3.5 0 0 0-3.5-3.5M97 237h7v7h-7zM97 244h7v7h-7zM104 251h-7v3.5a3.5 3.5 0 0 0 7 0M97 265v7h7v-3.5a3.5 3.5 0 0 0-3.5-3.5M97 272h7v7h-7zM97 279h7v7h-7zM104 20h7v-3.5a3.5 3.5 0 0 0-7 0M104 20h7v7h-7zM111 41v-7h-3.5a3.5 3.5 0 0 0 0 7M104 55h7v-3.5a3.5 3.5 0 0 0-7 0M111 55h-7v7h3.5a3.5 3.5 0 0 0 3.5-3.5M104 76h7v-7h-3.5a3.5 3.5 0 0 0-3.5 3.5M104 76h7v7h-7zM104 83h7v7h-7zM111 90h-7v3.5a3.5 3.5 0 0 0 7 0M104 104v7h7v-3.5a3.5 3.5 0 0 0-3.5-3.5M111 118v-7h-7v3.5a3.5 3.5 0 0 0 3.5 3.5M104 125v7h3.5a3.5 3.5 0 0 0 0-7M104 174h7v7h-7zM104 209h7v7h-7zM104 216h7v7h-7zM111 223h-7v3.5a3.5 3.5 0 0 0 7 0M104 244h7v7h-7zM111 265v-7h-3.5a3.5 3.5 0 0 0 0 7M104 272v7h7v-3.5a3.5 3.5 0 0 0-3.5-3.5M104 279h7v7h-7zM111 286h-7v3.5a3.5 3.5 0 0 0 7 0M118 13V6h-3.5a3.5 3.5 0 0 0 0 7M111 20v7h7v-3.5a3.5 3.5 0 0 0-3.5-3.5M111 27h7v7h-7zM118 34h-7v7h3.5a3.5 3.5 0 0 0 3.5-3.5M111 69v7h7v-3.5a3.5 3.5 0 0 0-3.5-3.5M111 76h7v7h-7zM111 83h7v7h-7z" />
          <circle cx="114.5" cy="100.5" r="3.5" />
          <path
            d="M111 111h7v7h-7zM111 139h7v-7h-3.5a3.5 3.5 0 0 0-3.5 3.5M111 139h7v7h-7zM118 153v-7h-7v3.5a3.5 3.5 0 0 0 3.5 3.5M118 167v-7h-3.5a3.5 3.5 0 0 0 0 7M111 174h7v7h-7zM111 181h7v7h-7zM111 188h7v7h-7zM118 195h-7v3.5a3.5 3.5 0 0 0 7 0M111 209h7v7h-7zM111 216h7v7h-7zM118 237v-7h-3.5a3.5 3.5 0 0 0 0 7M111 244v7h3.5a3.5 3.5 0 0 0 0-7M111 258v7h3.5a3.5 3.5 0 0 0 0-7M111 279h7v7h-7zM118 6h7v7h-7zM125 13h-7v3.5a3.5 3.5 0 0 0 7 0M118 27h7v7h-7zM118 48h7v-7h-3.5a3.5 3.5 0 0 0-3.5 3.5M125 48h-7v3.5a3.5 3.5 0 0 0 7 0M118 83h7v7h-7zM125 90h-7v3.5a3.5 3.5 0 0 0 7 0M118 111h7v-7h-3.5a3.5 3.5 0 0 0-3.5 3.5M118 111h7v7h-7zM118 132h7v-7h-3.5a3.5 3.5 0 0 0-3.5 3.5M125 132h-7v7h3.5a3.5 3.5 0 0 0 3.5-3.5M118 146v7h7v-3.5a3.5 3.5 0 0 0-3.5-3.5M118 153h7v7h-7zM118 160h7v7h-7zM118 167h7v7h-7zM118 174h7v7h-7zM118 209h7v-7h-3.5a3.5 3.5 0 0 0-3.5 3.5M118 209h7v7h-7zM125 216h-7v7h3.5a3.5 3.5 0 0 0 3.5-3.5M118 230v7h3.5a3.5 3.5 0 0 0 0-7M125 258v-7h-3.5a3.5 3.5 0 0 0 0 7" />
          <circle cx="121.5" cy="268.5" r="3.5" />
          <path
            d="M118 279h7v7h-7zM125 6h7v7h-7zM125 27h7v-3.5a3.5 3.5 0 0 0-7 0M125 27h7v7h-7zM125 34h7v7h-7zM125 41h7v7h-7zM125 69h7v-3.5a3.5 3.5 0 0 0-7 0M125 69h7v7h-7zM125 76h7v7h-7zM125 83h7v7h-7zM125 104v7h7v-3.5a3.5 3.5 0 0 0-3.5-3.5M132 111h-7v7h3.5a3.5 3.5 0 0 0 3.5-3.5M125 125h7v7h-7z" />
          <circle cx="128.5" cy="142.5" r="3.5" />
          <path
            d="M125 153h7v7h-7zM125 167v7h7v-3.5a3.5 3.5 0 0 0-3.5-3.5M125 174h7v7h-7zM125 181h7v7h-7zM132 195v-7h-7v3.5a3.5 3.5 0 0 0 3.5 3.5M125 202v7h7v-3.5a3.5 3.5 0 0 0-3.5-3.5M125 209h7v7h-7zM125 251h7v-3.5a3.5 3.5 0 0 0-7 0M132 251h-7v7h3.5a3.5 3.5 0 0 0 3.5-3.5M125 279v7h7v-3.5a3.5 3.5 0 0 0-3.5-3.5M132 293v-7h-7v3.5a3.5 3.5 0 0 0 3.5 3.5M132 6h7v7h-7zM132 41h7v7h-7zM132 48h7v7h-7zM139 55h-7v3.5a3.5 3.5 0 0 0 7 0M132 69v7h3.5a3.5 3.5 0 0 0 0-7M132 83v7h3.5a3.5 3.5 0 0 0 0-7M132 125h7v-3.5a3.5 3.5 0 0 0-7 0M139 125h-7v7h3.5a3.5 3.5 0 0 0 3.5-3.5M132 153h7v-3.5a3.5 3.5 0 0 0-7 0M132 153h7v7h-7zM139 160h-7v3.5a3.5 3.5 0 0 0 7 0M132 188h7v7h-7zM132 209v7h3.5a3.5 3.5 0 0 0 0-7" />
          <circle cx="135.5" cy="240.5" r="3.5" />
          <path
            d="M132 265h7v-3.5a3.5 3.5 0 0 0-7 0M132 265h7v7h-7zM139 272h-7v3.5a3.5 3.5 0 0 0 7 0M132 286h7v7h-7zM139 6v7h3.5a3.5 3.5 0 0 0 0-7M139 41h7v7h-7z" />
          <circle cx="142.5" cy="65.5" r="3.5" />
          <circle cx="142.5" cy="79.5" r="3.5" />
          <path
            d="M146 111v-7h-3.5a3.5 3.5 0 0 0 0 7M139 174h7v-3.5a3.5 3.5 0 0 0-7 0M146 174h-7v3.5a3.5 3.5 0 0 0 7 0M139 188v7h7v-3.5a3.5 3.5 0 0 0-3.5-3.5M146 195h-7v3.5a3.5 3.5 0 0 0 7 0" />
          <circle cx="142.5" cy="233.5" r="3.5" />
          <path d="M146 258v-7h-3.5a3.5 3.5 0 0 0 0 7M139 286v7h3.5a3.5 3.5 0 0 0 0-7" />
          <circle cx="149.5" cy="23.5" r="3.5" />
          <path d="M146 41h7v-3.5a3.5 3.5 0 0 0-7 0M146 41h7v7h-7zM146 48h7v7h-7zM153 55h-7v3.5a3.5 3.5 0 0 0 7 0" />
          <circle cx="149.5" cy="72.5" r="3.5" />
          <path
            d="M146 104h7v-7h-3.5a3.5 3.5 0 0 0-3.5 3.5M146 104h7v7h-7zM153 118v-7h-7v3.5a3.5 3.5 0 0 0 3.5 3.5M153 132v-7h-3.5a3.5 3.5 0 0 0 0 7" />
          <circle cx="149.5" cy="142.5" r="3.5" />
          <circle cx="149.5" cy="163.5" r="3.5" />
          <path d="M153 216v-7h-3.5a3.5 3.5 0 0 0 0 7" />
          <circle cx="149.5" cy="226.5" r="3.5" />
          <path
            d="M146 244h7v-3.5a3.5 3.5 0 0 0-7 0M146 244h7v7h-7zM153 251h-7v7h3.5a3.5 3.5 0 0 0 3.5-3.5M146 279h7v-3.5a3.5 3.5 0 0 0-7 0M153 286v-7h-7v3.5a3.5 3.5 0 0 0 3.5 3.5" />
          <circle cx="156.5" cy="16.5" r="3.5" />
          <path d="M153 41v7h3.5a3.5 3.5 0 0 0 0-7" />
          <circle cx="156.5" cy="65.5" r="3.5" />
          <circle cx="156.5" cy="79.5" r="3.5" />
          <path
            d="M153 97h7v-3.5a3.5 3.5 0 0 0-7 0M153 97h7v7h-7zM153 104h7v7h-7zM160 111h-7v7h3.5a3.5 3.5 0 0 0 3.5-3.5M153 125h7v7h-7zM160 139v-7h-7v3.5a3.5 3.5 0 0 0 3.5 3.5M153 181h7v-3.5a3.5 3.5 0 0 0-7 0M153 181h7v7h-7zM160 195v-7h-7v3.5a3.5 3.5 0 0 0 3.5 3.5M153 209h7v-7h-3.5a3.5 3.5 0 0 0-3.5 3.5M160 209h-7v7h3.5a3.5 3.5 0 0 0 3.5-3.5" />
          <circle cx="156.5" cy="233.5" r="3.5" />
          <path
            d="M153 244h7v7h-7zM160 272v-7h-3.5a3.5 3.5 0 0 0 0 7M153 279h7v7h-7zM160 286h-7v3.5a3.5 3.5 0 0 0 7 0M160 27h7v-7h-3.5a3.5 3.5 0 0 0-3.5 3.5M167 34v-7h-7v3.5a3.5 3.5 0 0 0 3.5 3.5" />
          <circle cx="163.5" cy="51.5" r="3.5" />
          <path d="M167 76v-7h-3.5a3.5 3.5 0 0 0 0 7" />
          <circle cx="163.5" cy="86.5" r="3.5" />
          <path
            d="M160 97v7h3.5a3.5 3.5 0 0 0 0-7M160 125h7v-7h-3.5a3.5 3.5 0 0 0-3.5 3.5M160 125h7v7h-7zM160 132h7v7h-7zM167 139h-7v3.5a3.5 3.5 0 0 0 7 0M160 188v7h3.5a3.5 3.5 0 0 0 0-7M160 202v7h3.5a3.5 3.5 0 0 0 0-7M160 223h7v-3.5a3.5 3.5 0 0 0-7 0M167 230v-7h-7v3.5a3.5 3.5 0 0 0 3.5 3.5M160 244v7h3.5a3.5 3.5 0 0 0 0-7M160 265h7v-7h-3.5a3.5 3.5 0 0 0-3.5 3.5M167 265h-7v7h3.5a3.5 3.5 0 0 0 3.5-3.5M160 279v7h3.5a3.5 3.5 0 0 0 0-7M174 13V6h-3.5a3.5 3.5 0 0 0 0 7M167 20h7v7h-7zM167 27h7v7h-7zM174 41v-7h-7v3.5a3.5 3.5 0 0 0 3.5 3.5M167 62h7v-7h-3.5a3.5 3.5 0 0 0-3.5 3.5M167 62h7v7h-7zM174 69h-7v7h3.5a3.5 3.5 0 0 0 3.5-3.5M174 111v-7h-3.5a3.5 3.5 0 0 0 0 7M167 118v7h7v-3.5a3.5 3.5 0 0 0-3.5-3.5M167 125h7v7h-7zM167 132h7v7h-7zM167 160h7v-7h-3.5a3.5 3.5 0 0 0-3.5 3.5M174 160h-7v3.5a3.5 3.5 0 0 0 7 0M167 181h7v-7h-3.5a3.5 3.5 0 0 0-3.5 3.5M174 188v-7h-7v3.5a3.5 3.5 0 0 0 3.5 3.5M167 223v7h3.5a3.5 3.5 0 0 0 0-7M167 258h7v-7h-3.5a3.5 3.5 0 0 0-3.5 3.5M174 258h-7v7h3.5a3.5 3.5 0 0 0 3.5-3.5" />
          <circle cx="170.5" cy="275.5" r="3.5" />
          <path
            d="M174 6h7v7h-7zM174 13h7v7h-7zM174 20h7v7h-7zM174 27h7v7h-7zM174 34h7v7h-7zM174 41h7v7h-7zM174 48h7v7h-7zM181 55h-7v7h3.5a3.5 3.5 0 0 0 3.5-3.5M174 90h7v-7h-3.5a3.5 3.5 0 0 0-3.5 3.5M174 90h7v7h-7zM174 97h7v7h-7zM174 104h7v7h-7zM181 111h-7v3.5a3.5 3.5 0 0 0 7 0M174 125v7h7v-3.5a3.5 3.5 0 0 0-3.5-3.5M174 132h7v7h-7zM174 139h7v7h-7zM174 146h7v7h-7zM174 153h7v7h-7zM174 174h7v-3.5a3.5 3.5 0 0 0-7 0M174 174h7v7h-7zM174 181h7v7h-7zM174 209h7v-3.5a3.5 3.5 0 0 0-7 0M181 216v-7h-7v3.5a3.5 3.5 0 0 0 3.5 3.5M174 237h7v-3.5a3.5 3.5 0 0 0-7 0M174 237h7v7h-7zM174 244h7v7h-7zM181 251h-7v7h3.5a3.5 3.5 0 0 0 3.5-3.5M181 286v-7h-3.5a3.5 3.5 0 0 0 0 7M181 6v7h7V9.5a3.5 3.5 0 0 0-3.5-3.5M181 13h7v7h-7zM181 20h7v7h-7zM181 27h7v7h-7zM188 34h-7v7h3.5a3.5 3.5 0 0 0 3.5-3.5M188 69v-7h-3.5a3.5 3.5 0 0 0 0 7M181 83v7h3.5a3.5 3.5 0 0 0 0-7M181 97v7h3.5a3.5 3.5 0 0 0 0-7M188 125v-7h-3.5a3.5 3.5 0 0 0 0 7M181 153h7v7h-7zM181 174v7h7v-3.5a3.5 3.5 0 0 0-3.5-3.5M181 181h7v7h-7zM188 195v-7h-7v3.5a3.5 3.5 0 0 0 3.5 3.5M181 209v7h3.5a3.5 3.5 0 0 0 0-7" />
          <circle cx="184.5" cy="226.5" r="3.5" />
          <path d="M181 237h7v7h-7z" />
          <circle cx="184.5" cy="268.5" r="3.5" />
          <path
            d="M181 279h7v7h-7zM188 27h7v7h-7zM188 55h7v-3.5a3.5 3.5 0 0 0-7 0M188 55h7v7h-7zM188 62h7v7h-7zM188 69h7v7h-7zM195 83v-7h-7v3.5a3.5 3.5 0 0 0 3.5 3.5M188 118h7v7h-7zM188 146h7v-7h-3.5a3.5 3.5 0 0 0-3.5 3.5M188 146h7v7h-7zM188 153h7v7h-7zM188 160h7v7h-7zM195 167h-7v3.5a3.5 3.5 0 0 0 7 0M188 181h7v7h-7zM188 188h7v7h-7zM195 209v-7h-3.5a3.5 3.5 0 0 0 0 7" />
          <circle cx="191.5" cy="219.5" r="3.5" />
          <path
            d="M188 237h7v-7h-3.5a3.5 3.5 0 0 0-3.5 3.5M188 237h7v7h-7zM188 258h7v-3.5a3.5 3.5 0 0 0-7 0M195 258h-7v3.5a3.5 3.5 0 0 0 7 0M188 279v7h7v-3.5a3.5 3.5 0 0 0-3.5-3.5M195 286h-7v3.5a3.5 3.5 0 0 0 7 0M202 20v-7h-3.5a3.5 3.5 0 0 0 0 7M195 27v7h3.5a3.5 3.5 0 0 0 0-7" />
          <circle cx="198.5" cy="44.5" r="3.5" />
          <path
            d="M195 55v7h7v-3.5a3.5 3.5 0 0 0-3.5-3.5M202 62h-7v7h3.5a3.5 3.5 0 0 0 3.5-3.5M195 76v7h3.5a3.5 3.5 0 0 0 0-7M202 97v-7h-3.5a3.5 3.5 0 0 0 0 7" />
          <circle cx="198.5" cy="107.5" r="3.5" />
          <path
            d="M195 118h7v7h-7zM195 125h7v7h-7zM195 132h7v7h-7zM195 139h7v7h-7zM195 153h7v7h-7zM195 160h7v7h-7zM195 181v7h7v-3.5a3.5 3.5 0 0 0-3.5-3.5M202 188h-7v7h3.5a3.5 3.5 0 0 0 3.5-3.5M195 202v7h7v-3.5a3.5 3.5 0 0 0-3.5-3.5M202 216v-7h-7v3.5a3.5 3.5 0 0 0 3.5 3.5M195 230v7h7v-3.5a3.5 3.5 0 0 0-3.5-3.5M195 237h7v7h-7zM202 251v-7h-7v3.5a3.5 3.5 0 0 0 3.5 3.5M202 13h7V9.5a3.5 3.5 0 0 0-7 0M202 13h7v7h-7zM209 20h-7v3.5a3.5 3.5 0 0 0 7 0" />
          <circle cx="205.5" cy="51.5" r="3.5" />
          <path
            d="M202 90h7v7h-7zM209 104v-7h-7v3.5a3.5 3.5 0 0 0 3.5 3.5M202 118h7v7h-7zM202 132h7v7h-7zM202 139h7v7h-7zM202 146h7v7h-7zM202 153h7v7h-7zM202 160h7v7h-7zM209 202v-7h-3.5a3.5 3.5 0 0 0 0 7M202 209v7h3.5a3.5 3.5 0 0 0 0-7M202 237h7v7h-7zM209 244h-7v7h3.5a3.5 3.5 0 0 0 3.5-3.5M202 286h7v-3.5a3.5 3.5 0 0 0-7 0M209 293v-7h-7v3.5a3.5 3.5 0 0 0 3.5 3.5M209 41h7v-7h-3.5a3.5 3.5 0 0 0-3.5 3.5M216 48v-7h-7v3.5a3.5 3.5 0 0 0 3.5 3.5M216 62v-7h-3.5a3.5 3.5 0 0 0 0 7M209 76h7v-7h-3.5a3.5 3.5 0 0 0-3.5 3.5M216 76h-7v3.5a3.5 3.5 0 0 0 7 0M209 90h7v7h-7zM209 97h7v7h-7zM209 118h7v7h-7zM209 132h7v7h-7zM209 139h7v7h-7zM209 153v7h7v-3.5a3.5 3.5 0 0 0-3.5-3.5M209 160h7v7h-7zM216 188v-7h-3.5a3.5 3.5 0 0 0 0 7M209 195h7v7h-7zM216 209v-7h-7v3.5a3.5 3.5 0 0 0 3.5 3.5M209 230h7v-3.5a3.5 3.5 0 0 0-7 0M209 230h7v7h-7zM216 237h-7v7h3.5a3.5 3.5 0 0 0 3.5-3.5M216 258v-7h-3.5a3.5 3.5 0 0 0 0 7M209 272h7v-7h-3.5a3.5 3.5 0 0 0-3.5 3.5M216 272h-7v3.5a3.5 3.5 0 0 0 7 0M209 286h7v7h-7z" />
          <circle cx="219.5" cy="9.5" r="3.5" />
          <path
            d="M216 34h7v-7h-3.5a3.5 3.5 0 0 0-3.5 3.5M216 34h7v7h-7zM216 41h7v7h-7zM216 48h7v7h-7zM223 55h-7v7h3.5a3.5 3.5 0 0 0 3.5-3.5M216 69v7h3.5a3.5 3.5 0 0 0 0-7M216 90h7v-7h-3.5a3.5 3.5 0 0 0-3.5 3.5M216 90h7v7h-7zM216 97h7v7h-7zM216 104h7v7h-7zM216 111h7v7h-7zM216 118h7v7h-7zM216 125h7v7h-7zM216 132h7v7h-7zM216 139h7v7h-7zM216 160h7v7h-7zM216 181v7h7v-3.5a3.5 3.5 0 0 0-3.5-3.5M216 188h7v7h-7zM216 195h7v7h-7zM216 202h7v7h-7zM223 216v-7h-7v3.5a3.5 3.5 0 0 0 3.5 3.5M216 251v7h3.5a3.5 3.5 0 0 0 0-7M216 265h7v7h-7zM216 286h7v-7h-3.5a3.5 3.5 0 0 0-3.5 3.5M216 286h7v7h-7zM223 27h7v7h-7zM223 41v7h3.5a3.5 3.5 0 0 0 0-7M230 69v-7h-3.5a3.5 3.5 0 0 0 0 7M223 83h7v7h-7zM223 90h7v7h-7zM223 97h7v7h-7zM230 104h-7v7h3.5a3.5 3.5 0 0 0 3.5-3.5M223 118v7h7v-3.5a3.5 3.5 0 0 0-3.5-3.5M230 125h-7v7h3.5a3.5 3.5 0 0 0 3.5-3.5M223 139v7h7v-3.5a3.5 3.5 0 0 0-3.5-3.5M230 146h-7v3.5a3.5 3.5 0 0 0 7 0M223 160h7v7h-7zM230 174v-7h-7v3.5a3.5 3.5 0 0 0 3.5 3.5M223 188h7v7h-7zM223 209v7h3.5a3.5 3.5 0 0 0 0-7M230 244v-7h-3.5a3.5 3.5 0 0 0 0 7M223 265h7v-7h-3.5a3.5 3.5 0 0 0-3.5 3.5M230 265h-7v7h3.5a3.5 3.5 0 0 0 3.5-3.5M223 279v7h7v-3.5a3.5 3.5 0 0 0-3.5-3.5M223 286h7v7h-7z" />
          <circle cx="233.5" cy="9.5" r="3.5" />
          <path
            d="M230 27v7h7v-3.5a3.5 3.5 0 0 0-3.5-3.5M237 34h-7v3.5a3.5 3.5 0 0 0 7 0M230 55h7v-3.5a3.5 3.5 0 0 0-7 0M230 55h7v7h-7zM230 62h7v7h-7zM237 76v-7h-7v3.5a3.5 3.5 0 0 0 3.5 3.5M230 83v7h3.5a3.5 3.5 0 0 0 0-7M237 118v-7h-3.5a3.5 3.5 0 0 0 0 7M230 160h7v7h-7zM237 167h-7v7h3.5a3.5 3.5 0 0 0 3.5-3.5M230 188h7v-3.5a3.5 3.5 0 0 0-7 0M230 188h7v7h-7zM230 195h7v7h-7zM237 209v-7h-7v3.5a3.5 3.5 0 0 0 3.5 3.5M230 237h7v-7h-3.5a3.5 3.5 0 0 0-3.5 3.5M230 237h7v7h-7zM230 244h7v7h-7zM230 251h7v7h-7zM230 258h7v7h-7z" />
          <circle cx="233.5" cy="275.5" r="3.5" />
          <path
            d="M230 286h7v7h-7zM237 62h7v7h-7zM237 69h7v7h-7zM237 97h7v-3.5a3.5 3.5 0 0 0-7 0M237 97h7v7h-7zM237 104h7v7h-7zM237 111h7v7h-7zM237 118h7v7h-7zM237 125h7v7h-7zM244 139v-7h-7v3.5a3.5 3.5 0 0 0 3.5 3.5M237 160v7h3.5a3.5 3.5 0 0 0 0-7M237 202v7h7v-3.5a3.5 3.5 0 0 0-3.5-3.5M244 209h-7v3.5a3.5 3.5 0 0 0 7 0M237 230h7v7h-7zM237 258h7v7h-7zM237 286h7v-7h-3.5a3.5 3.5 0 0 0-3.5 3.5M244 286h-7v7h3.5a3.5 3.5 0 0 0 3.5-3.5M244 62h7v7h-7zM244 69h7v7h-7zM244 97v7h7v-3.5a3.5 3.5 0 0 0-3.5-3.5M244 104h7v7h-7zM244 118v7h7v-3.5a3.5 3.5 0 0 0-3.5-3.5M244 125h7v7h-7zM244 132h7v7h-7zM251 139h-7v3.5a3.5 3.5 0 0 0 7 0M251 223v-7h-3.5a3.5 3.5 0 0 0 0 7M244 230h7v7h-7z" />
          <circle cx="247.5" cy="247.5" r="3.5" />
          <path
            d="M244 258h7v7h-7zM251 265h-7v3.5a3.5 3.5 0 0 0 7 0M244 279v7h3.5a3.5 3.5 0 0 0 0-7M251 62v7h7v-3.5a3.5 3.5 0 0 0-3.5-3.5M251 69h7v7h-7zM251 76h7v7h-7zM258 90v-7h-7v3.5a3.5 3.5 0 0 0 3.5 3.5M251 104v7h3.5a3.5 3.5 0 0 0 0-7M251 153h7v-3.5a3.5 3.5 0 0 0-7 0M251 153h7v7h-7zM258 167v-7h-7v3.5a3.5 3.5 0 0 0 3.5 3.5" />
          <circle cx="254.5" cy="177.5" r="3.5" />
          <path
            d="M251 195h7v-3.5a3.5 3.5 0 0 0-7 0M251 195h7v7h-7zM258 209v-7h-7v3.5a3.5 3.5 0 0 0 3.5 3.5M251 216h7v7h-7zM251 223h7v7h-7zM251 230h7v7h-7zM251 258h7v7h-7z" />
          <circle cx="254.5" cy="275.5" r="3.5" />
          <circle cx="254.5" cy="289.5" r="3.5" />
          <path
            d="M258 76v7h7v-3.5a3.5 3.5 0 0 0-3.5-3.5M258 83h7v7h-7zM265 97v-7h-7v3.5a3.5 3.5 0 0 0 3.5 3.5M265 125v-7h-3.5a3.5 3.5 0 0 0 0 7M258 139h7v-7h-3.5a3.5 3.5 0 0 0-3.5 3.5M265 146v-7h-7v3.5a3.5 3.5 0 0 0 3.5 3.5M258 153h7v7h-7zM258 160h7v7h-7zM258 202v7h3.5a3.5 3.5 0 0 0 0-7M258 216h7v7h-7zM258 230v7h7v-3.5a3.5 3.5 0 0 0-3.5-3.5M258 237h7v7h-7zM258 244h7v7h-7zM258 251h7v7h-7zM258 258h7v7h-7z" />
          <circle cx="261.5" cy="282.5" r="3.5" />
          <circle cx="268.5" cy="65.5" r="3.5" />
          <path
            d="M265 90h7v7h-7zM272 97h-7v3.5a3.5 3.5 0 0 0 7 0M265 118h7v-3.5a3.5 3.5 0 0 0-7 0M265 118h7v7h-7zM265 125h7v7h-7zM265 132h7v7h-7zM265 139h7v7h-7zM265 153h7v7h-7zM265 160h7v7h-7z" />
          <circle cx="268.5" cy="184.5" r="3.5" />
          <path
            d="M265 216h7v7h-7zM265 237v7h7v-3.5a3.5 3.5 0 0 0-3.5-3.5M272 244h-7v7h3.5a3.5 3.5 0 0 0 3.5-3.5M265 258h7v7h-7z" />
          <circle cx="268.5" cy="275.5" r="3.5" />
          <path
            d="M272 90h7v-7h-3.5a3.5 3.5 0 0 0-3.5 3.5M272 90h7v7h-7zM272 118h7v7h-7zM272 132h7v7h-7zM272 139h7v7h-7zM272 146h7v7h-7zM272 153h7v7h-7zM272 160h7v7h-7zM279 174v-7h-7v3.5a3.5 3.5 0 0 0 3.5 3.5M272 216h7v-7h-3.5a3.5 3.5 0 0 0-3.5 3.5M272 216h7v7h-7zM279 230v-7h-7v3.5a3.5 3.5 0 0 0 3.5 3.5M272 258v7h7v-3.5a3.5 3.5 0 0 0-3.5-3.5M279 265h-7v3.5a3.5 3.5 0 0 0 7 0" />
          <circle cx="275.5" cy="289.5" r="3.5" />
          <path
            d="M279 69h7v-3.5a3.5 3.5 0 0 0-7 0M279 69h7v7h-7zM279 76h7v7h-7zM279 83h7v7h-7zM279 90h7v7h-7zM279 111h7v-3.5a3.5 3.5 0 0 0-7 0M279 111h7v7h-7zM286 118h-7v7h3.5a3.5 3.5 0 0 0 3.5-3.5M279 132h7v7h-7zM279 153v7h3.5a3.5 3.5 0 0 0 0-7M279 167v7h3.5a3.5 3.5 0 0 0 0-7M279 188h7v-3.5a3.5 3.5 0 0 0-7 0M279 188h7v7h-7zM279 195h7v7h-7zM279 202h7v7h-7zM279 209h7v7h-7zM279 216h7v7h-7zM279 223h7v7h-7zM279 230h7v7h-7zM286 237h-7v3.5a3.5 3.5 0 0 0 7 0M286 258v-7h-3.5a3.5 3.5 0 0 0 0 7M286 286v-7h-3.5a3.5 3.5 0 0 0 0 7M286 69v7h7v-3.5a3.5 3.5 0 0 0-3.5-3.5M286 76h7v7h-7zM286 83h7v7h-7zM286 90h7v7h-7zM293 97h-7v3.5a3.5 3.5 0 0 0 7 0M286 132h7v-3.5a3.5 3.5 0 0 0-7 0M286 132h7v7h-7zM293 139h-7v3.5a3.5 3.5 0 0 0 7 0" />
          <circle cx="289.5" cy="177.5" r="3.5" />
          <path
            d="M286 209v7h7v-3.5a3.5 3.5 0 0 0-3.5-3.5M293 216h-7v7h3.5a3.5 3.5 0 0 0 3.5-3.5M286 230v7h3.5a3.5 3.5 0 0 0 0-7M286 251h7v-3.5a3.5 3.5 0 0 0-7 0M286 251h7v7h-7zM286 258h7v7h-7zM293 265h-7v3.5a3.5 3.5 0 0 0 7 0M286 279v7h3.5a3.5 3.5 0 0 0 0-7" />
        </clipPath>
        <clipPath id="b">
          <path
            d="M6 23.5v14A17.5 17.5 0 0 0 23.5 55h14A17.5 17.5 0 0 0 55 37.5v-14A17.5 17.5 0 0 0 37.5 6h-14A17.5 17.5 0 0 0 6 23.5M23.5 13h14A10.5 10.5 0 0 1 48 23.5v14A10.5 10.5 0 0 1 37.5 48h-14A10.5 10.5 0 0 1 13 37.5v-14A10.5 10.5 0 0 1 23.5 13"
            clip-rule="evenodd" />
        </clipPath>
        <clipPath id="c">
          <circle cx="30.5" cy="30.5" r="10.5" />
        </clipPath>
        <clipPath id="d">
          <path
            d="M275.5 6h-14A17.5 17.5 0 0 0 244 23.5v14A17.5 17.5 0 0 0 261.5 55h14A17.5 17.5 0 0 0 293 37.5v-14A17.5 17.5 0 0 0 275.5 6M286 23.5v14A10.5 10.5 0 0 1 275.5 48h-14A10.5 10.5 0 0 1 251 37.5v-14A10.5 10.5 0 0 1 261.5 13h14A10.5 10.5 0 0 1 286 23.5"
            clip-rule="evenodd" />
        </clipPath>
        <clipPath id="e">
          <circle cx="268.5" cy="30.5" r="10.5" transform="rotate(90 268.5 30.5)" />
        </clipPath>
        <clipPath id="f">
          <path
            d="M23.5 293h14A17.5 17.5 0 0 0 55 275.5v-14A17.5 17.5 0 0 0 37.5 244h-14A17.5 17.5 0 0 0 6 261.5v14A17.5 17.5 0 0 0 23.5 293M13 275.5v-14A10.5 10.5 0 0 1 23.5 251h14A10.5 10.5 0 0 1 48 261.5v14A10.5 10.5 0 0 1 37.5 286h-14A10.5 10.5 0 0 1 13 275.5"
            clip-rule="evenodd" />
        </clipPath>
        <clipPath id="g">
          <circle cx="30.5" cy="268.5" r="10.5" transform="rotate(-90 30.5 268.5)" />
        </clipPath>
      </defs>
      <path fill="#fff" d="M0 0h300v300H0z" />
      <path fill="#e60076" d="M6 6h287v287H6z" clip-path="url('#a')" />
      <path fill="#e60076" d="M6 6h49v49H6z" clip-path="url('#b')" />
      <path fill="#e60076" d="M20 20h21v21H20z" clip-path="url('#c')" />
      <path fill="#e60076" d="M244 6h49v49h-49z" clip-path="url('#d')" />
      <path fill="#e60076" d="M258 20h21v21h-21z" clip-path="url('#e')" />
      <path fill="#e60076" d="M6 244h49v49H6z" clip-path="url('#f')" />
      <path fill="#e60076" d="M20 258h21v21H20z" clip-path="url('#g')" />
    </svg>
  </g>
</svg>