<svg id="svgQrWrapper" viewBox="0 0 300 300" xmlns="http://www.w3.org/2000/svg"
  xmlns:xlink="http://www.w3.org/1999/xlink" width="300" height="300" style="width: 100%; height: 100%;"><svg
    fill="none" xmlns="http://www.w3.org/2000/svg" width="300" height="300" viewBox="0 0 2000 2000">
    <g transform="translate(-180,-180)scale(1.2)">
      <defs>
        <style>
          .cls3-1 {
            fill: #e60076
          }

          .cls3-2 {
            fill: #000
          }
        </style>
      </defs>
      <g id="\u0421\u043B\u043E\u0439_3" data-name="\u0421\u043B\u043E\u0439 3">
        <path class="cls3-1"
          d="m1460.37 1613.22 39.9-34.3-93.48-.09-47.54 46.11h149.6l47.54-46.11h-40.66ZM1457.32 1673.76l-44.32-31.68 33.79 31.68h-40l-47.54-46.1h149.6l47.54 46.1ZM1143.17 1687.43c13.16-3.33 23.15-14.77 25.5-26.26 2.42-11.88-3.5-24.42-15.32-33.8 11.5-9.77 17-22.51 14.16-34.3-2.78-11.58-13.27-22.42-26.38-25.38-23.07-5.21-48.2 15.41-78 39.83a309.31 309.31 0 0 0-23.87 21.75v.08c4.49 4 11 9.64 19.07 16 34.01 26.65 61.36 48.04 84.84 42.08Z" />
        <rect class="cls3-2" x="1122.95" y="1622.05" width="395.3" height="11.21" rx="5.6" />
        <path class="cls3-1"
          d="m871.55 1613.22 39.9-34.3-93.48-.09-47.54 46.11H920l47.54-46.11h-40.63ZM868.5 1673.76l-44.33-31.68 33.83 31.68h-40l-47.54-46.1H920l47.54 46.1ZM554.34 1687.43c13.17-3.33 23.16-14.77 25.5-26.26 2.43-11.88-3.49-24.42-15.31-33.8 11.49-9.77 17-22.51 14.16-34.3-2.78-11.58-13.27-22.42-26.38-25.38-23.08-5.21-48.2 15.41-78 39.83a309.31 309.31 0 0 0-23.87 21.75v.08c4.49 4 10.94 9.64 19.06 16 34.02 26.65 61.37 48.04 84.84 42.08Z" />
        <rect class="cls3-2" x="534.13" y="1622.05" width="395.3" height="11.21" rx="5.6" />
        <path class="cls3-1"
          d="M389.78 1454.18q17.14 20 34.3 39.91l.09-93.48-46.11-47.54v149.59l46.11 47.55v-40.66ZM329.24 1451.14l31.68-44.33-31.68 33.79v-40l46.1-47.54v149.59l-46.1 47.55ZM315.56 1137c3.34 13.17 14.78 23.15 26.27 25.5 11.88 2.43 24.42-3.49 33.8-15.31 9.77 11.49 22.51 17 34.3 14.15 11.58-2.78 22.42-13.26 25.38-26.37 5.21-23.08-15.41-48.21-39.83-78a309.31 309.31 0 0 0-21.75-23.87h-.08c-4 4.49-9.64 10.94-16 19.06-26.65 33.99-48.04 61.34-42.09 84.84Z" />
        <rect class="cls3-2" x="177.7" y="1308.81" width="395.3" height="11.21" rx="5.6"
          transform="rotate(90 375.345 1314.415)" />
        <path class="cls3-1"
          d="m389.78 865.36 34.3 39.9.09-93.47-46.11-47.55v149.6l46.11 47.54v-40.65ZM329.24 862.31 360.92 818l-31.68 33.79v-40l46.1-47.55v149.6l-46.1 47.54ZM315.56 548.16c3.34 13.16 14.78 23.15 26.27 25.5 11.88 2.42 24.42-3.5 33.8-15.32 9.77 11.5 22.51 17 34.3 14.16 11.58-2.78 22.42-13.27 25.38-26.38 5.21-23.07-15.41-48.2-39.83-78a307 307 0 0 0-21.75-23.86h-.08c-4 4.48-9.64 10.94-16 19.06-26.65 34.01-48.04 61.36-42.09 84.84Z" />
        <rect class="cls3-2" x="177.7" y="719.99" width="395.3" height="11.21" rx="5.6"
          transform="rotate(90 375.345 725.595)" />
        <path class="cls3-1"
          d="m546.5 386.78-39.9 34.3 93.48.09 47.54-46.11H498l-47.54 46.11h40.66ZM549.55 326.24l44.33 31.68-33.79-31.68h40l47.54 46.1H498l-47.54-46.1ZM863.71 312.57c-13.17 3.33-23.16 14.77-25.5 26.26-2.43 11.88 3.49 24.42 15.31 33.8-11.49 9.77-17 22.51-14.16 34.3 2.78 11.58 13.27 22.42 26.38 25.38 23.08 5.21 48.2-15.41 78-39.83a309.31 309.31 0 0 0 23.87-21.75v-.08c-4.49-4-10.94-9.64-19.06-16-34.02-26.65-61.37-48.04-84.84-42.08Z" />
        <rect class="cls3-2" x="488.62" y="366.74" width="395.3" height="11.21" rx="5.6"
          transform="rotate(180 686.27 372.345)" />
        <path class="cls3-1"
          d="m1135.33 386.78-39.91 34.3 93.48.09 47.54-46.11h-149.6l-47.54 46.11h40.7ZM1138.37 326.24l44.33 31.68-33.79-31.68h40l47.54 46.1h-149.6l-47.54-46.1ZM1452.53 312.57c-13.17 3.33-23.15 14.77-25.5 26.26-2.43 11.88 3.49 24.42 15.31 33.8-11.49 9.77-17 22.51-14.15 34.3 2.78 11.58 13.26 22.42 26.37 25.38 23.08 5.21 48.21-15.41 78-39.83a309.31 309.31 0 0 0 23.87-21.75v-.08c-4.49-4-10.94-9.64-19.06-16-34.01-26.65-61.37-48.04-84.84-42.08Z" />
        <rect class="cls3-2" x="1077.45" y="366.74" width="395.3" height="11.21" rx="5.6"
          transform="rotate(180 1275.095 372.345)" />
        <path class="cls3-1"
          d="M1610.22 540.32q-17.15-20-34.3-39.91l-.09 93.48 46.11 47.54V491.84l-46.11-47.54V485ZM1670.76 543.37l-31.68 44.32 31.68-33.79v40l-46.1 47.54v-149.6l46.1-47.54ZM1684.44 857.52c-3.34-13.17-14.78-23.15-26.27-25.5-11.88-2.43-24.42 3.49-33.8 15.31-9.77-11.49-22.51-17-34.3-14.15-11.58 2.78-22.42 13.26-25.38 26.38-5.21 23.07 15.41 48.2 39.83 78a308.85 308.85 0 0 0 21.75 23.86h.08c4-4.48 9.64-10.94 16-19.06 26.65-34.01 48.04-61.36 42.09-84.84Z" />
        <rect class="cls3-2" x="1427.01" y="674.48" width="395.3" height="11.21" rx="5.6"
          transform="rotate(-90 1624.655 680.085)" />
        <path class="cls3-1"
          d="m1610.22 1129.14-34.3-39.9-.09 93.48 46.11 47.54v-149.6l-46.11-47.54v40.66ZM1670.76 1132.19l-31.68 44.32 31.68-33.79v40l-46.1 47.54v-149.6l46.1-47.54ZM1684.44 1446.34c-3.34-13.16-14.78-23.15-26.27-25.5-11.88-2.42-24.42 3.5-33.8 15.32-9.77-11.5-22.51-17-34.3-14.16-11.58 2.78-22.42 13.27-25.38 26.38-5.21 23.07 15.41 48.2 39.83 78a309.31 309.31 0 0 0 21.75 23.87h.08c4-4.48 9.64-10.94 16-19.06 26.65-34.02 48.04-61.37 42.09-84.85Z" />
        <rect class="cls3-2" x="1427.01" y="1263.3" width="395.3" height="11.21" rx="5.6"
          transform="rotate(-90 1624.655 1268.905)" />
      </g>
      <g transform="translate(510, 510)scale(3.3)" fill="none"><svg width="300" height="300">
          <style>
            .background-color {
              fill: #fff;
            }

            .dot-color {
              fill: #fff;
            }

            .corners-square-color-0-0 {
              fill: #fff;
            }

            .corners-dot-color-0-0 {
              fill: #fff;
            }

            .corners-square-color-1-0 {
              fill: #fff;
            }

            .corners-dot-color-1-0 {
              fill: #fff;
            }

            .corners-square-color-0-1 {
              fill: #fff;
            }

            .corners-dot-color-0-1 {
              fill: #fff;
            }
          </style>
          <defs />
          <g class="dot-color">
            <path d="M 5 95v 10h 10v -5a 5 5, 0, 0, 0, -5 -5" transform="rotate(-90,10,100)" />
            <path d="M 5 105v 10h 10v -5a 5 5, 0, 0, 0, -5 -5" transform="rotate(90,10,110)" />
            <path d="M 5 125v 10h 10v -5a 5 5, 0, 0, 0, -5 -5" transform="rotate(-90,10,130)" />
            <rect x="5" y="135" width="10" height="10" transform="rotate(0,10,140)" />
            <path d="M 5 145v 10h 10v -5a 5 5, 0, 0, 0, -5 -5" transform="rotate(90,10,150)" />
            <path d="M 5 165v 10h 10v -5a 5 5, 0, 0, 0, -5 -5" transform="rotate(-90,10,170)" />
            <path d="M 5 195v 10h 10v -5a 5 5, 0, 0, 0, -5 -5" transform="rotate(-90,10,200)" />
            <path d="M 15 85v 10h 10v -5a 5 5, 0, 0, 0, -5 -5" transform="rotate(-90,20,90)" />
            <rect x="15" y="95" width="10" height="10" transform="rotate(0,20,100)" />
            <rect x="15" y="125" width="10" height="10" transform="rotate(0,20,130)" />
            <rect x="15" y="135" width="10" height="10" transform="rotate(0,20,140)" />
            <rect x="15" y="165" width="10" height="10" transform="rotate(0,20,170)" />
            <rect x="15" y="195" width="10" height="10" transform="rotate(0,20,200)" />
            <rect x="25" y="95" width="10" height="10" transform="rotate(0,30,100)" />
            <rect x="25" y="125" width="10" height="10" transform="rotate(0,30,130)" />
            <rect x="25" y="135" width="10" height="10" transform="rotate(0,30,140)" />
            <rect x="25" y="145" width="10" height="10" transform="rotate(0,30,150)" />
            <rect x="25" y="165" width="10" height="10" transform="rotate(0,30,170)" />
            <rect x="25" y="195" width="10" height="10" transform="rotate(0,30,200)" />
            <rect x="25" y="205" width="10" height="10" transform="rotate(0,30,210)" />
            <path d="M 35 85v 10h 10v -5a 5 5, 0, 0, 0, -5 -5" transform="rotate(-90,40,90)" />
            <rect x="35" y="95" width="10" height="10" transform="rotate(0,40,100)" />
            <path d="M 35 105v 10h 10v -5a 5 5, 0, 0, 0, -5 -5" transform="rotate(90,40,110)" />
            <rect x="35" y="125" width="10" height="10" transform="rotate(0,40,130)" />
            <rect x="35" y="135" width="10" height="10" transform="rotate(0,40,140)" />
            <path d="M 35 145v 10h 10v -5a 5 5, 0, 0, 0, -5 -5" transform="rotate(90,40,150)" />
            <rect x="35" y="165" width="10" height="10" transform="rotate(0,40,170)" />
            <path d="M 35 175v 10h 10v -5a 5 5, 0, 0, 0, -5 -5" transform="rotate(90,40,180)" />
            <path d="M 35 205v 10h 10v -5a 5 5, 0, 0, 0, -5 -5" transform="rotate(90,40,210)" />
            <rect x="45" y="85" width="10" height="10" transform="rotate(0,50,90)" />
            <path d="M 45 95v 10h 10v -5a 5 5, 0, 0, 0, -5 -5" transform="rotate(90,50,100)" />
            <path d="M 45 115v 5a 5 5, 0, 0, 0, 5 5h 5v -5a 5 5, 0, 0, 0, -5 -5" transform="rotate(90,50,120)" />
            <path d="M 45 185v 10h 10v -5a 5 5, 0, 0, 0, -5 -5" transform="rotate(-90,50,190)" />
            <path d="M 45 195v 10h 10v -5a 5 5, 0, 0, 0, -5 -5" transform="rotate(90,50,200)" />
            <path d="M 55 105v 10h 10v -5a 5 5, 0, 0, 0, -5 -5" transform="rotate(-90,60,110)" />
            <path d="M 55 135v 10h 10v -5a 5 5, 0, 0, 0, -5 -5" transform="rotate(-90,60,140)" />
            <rect x="55" y="145" width="10" height="10" transform="rotate(0,60,150)" />
            <path d="M 55 165v 10h 10v -5a 5 5, 0, 0, 0, -5 -5" transform="rotate(-90,60,170)" />
            <rect x="55" y="175" width="10" height="10" transform="rotate(0,60,180)" />
            <rect x="55" y="185" width="10" height="10" transform="rotate(0,60,190)" />
            <path d="M 65 85v 10h 10v -5a 5 5, 0, 0, 0, -5 -5" transform="rotate(-90,70,90)" />
            <rect x="65" y="105" width="10" height="10" transform="rotate(0,70,110)" />
            <path d="M 65 125v 10h 10v -5a 5 5, 0, 0, 0, -5 -5" transform="rotate(-90,70,130)" />
            <path d="M 65 145v 10h 10v -5a 5 5, 0, 0, 0, -5 -5" transform="rotate(90,70,150)" />
            <path d="M 65 165v 10h 10v -5a 5 5, 0, 0, 0, -5 -5" transform="rotate(90,70,170)" />
            <rect x="65" y="185" width="10" height="10" transform="rotate(0,70,190)" />
            <path d="M 65 205v 5a 5 5, 0, 0, 0, 5 5h 5v -5a 5 5, 0, 0, 0, -5 -5" transform="rotate(90,70,210)" />
            <rect x="75" y="85" width="10" height="10" transform="rotate(0,80,90)" />
            <rect x="75" y="95" width="10" height="10" transform="rotate(0,80,100)" />
            <rect x="75" y="105" width="10" height="10" transform="rotate(0,80,110)" />
            <path d="M 75 125v 10h 10v -5a 5 5, 0, 0, 0, -5 -5" transform="rotate(90,80,130)" />
            <path d="M 75 155v 10h 10v -5a 5 5, 0, 0, 0, -5 -5" transform="rotate(-90,80,160)" />
            <rect x="75" y="185" width="10" height="10" transform="rotate(0,80,190)" />
            <path d="M 85 15v 5a 5 5, 0, 0, 0, 5 5h 5v -5a 5 5, 0, 0, 0, -5 -5" transform="rotate(90,90,20)" />
            <path d="M 85 35v 10h 10v -5a 5 5, 0, 0, 0, -5 -5" transform="rotate(-90,90,40)" />
            <rect x="85" y="45" width="10" height="10" transform="rotate(0,90,50)" />
            <rect x="85" y="55" width="10" height="10" transform="rotate(0,90,60)" />
            <path d="M 85 65v 10h 10v -5a 5 5, 0, 0, 0, -5 -5" transform="rotate(90,90,70)" />
            <path d="M 85 85v 10h 10v -5a 5 5, 0, 0, 0, -5 -5" transform="rotate(90,90,90)" />
            <path d="M 85 105v 10h 10v -5a 5 5, 0, 0, 0, -5 -5" transform="rotate(90,90,110)" />
            <path d="M 85 135v 10h 10v -5a 5 5, 0, 0, 0, -5 -5" transform="rotate(-90,90,140)" />
            <rect x="85" y="145" width="10" height="10" transform="rotate(0,90,150)" />
            <rect x="85" y="155" width="10" height="10" transform="rotate(0,90,160)" />
            <rect x="85" y="185" width="10" height="10" transform="rotate(0,90,190)" />
            <path d="M 85 205v 10h 10v -5a 5 5, 0, 0, 0, -5 -5" transform="rotate(-90,90,210)" />
            <rect x="85" y="215" width="10" height="10" transform="rotate(0,90,220)" />
            <path d="M 85 225v 10h 10v -5a 5 5, 0, 0, 0, -5 -5" transform="rotate(90,90,230)" />
            <path d="M 85 245v 10h 10v -5a 5 5, 0, 0, 0, -5 -5" transform="rotate(-90,90,250)" />
            <rect x="85" y="255" width="10" height="10" transform="rotate(0,90,260)" />
            <path d="M 85 275v 10h 10v -5a 5 5, 0, 0, 0, -5 -5" transform="rotate(-90,90,280)" />
            <path d="M 95 25v 10h 10v -5a 5 5, 0, 0, 0, -5 -5" transform="rotate(-90,100,30)" />
            <rect x="95" y="35" width="10" height="10" transform="rotate(0,100,40)" />
            <path d="M 95 55v 10h 10v -5a 5 5, 0, 0, 0, -5 -5" transform="rotate(90,100,60)" />
            <path d="M 95 75v 10h 10v -5a 5 5, 0, 0, 0, -5 -5" transform="rotate(-90,100,80)" />
            <path d="M 95 95v 5a 5 5, 0, 0, 0, 5 5h 5v -5a 5 5, 0, 0, 0, -5 -5" transform="rotate(90,100,100)" />
            <path d="M 95 115v 5a 5 5, 0, 0, 0, 5 5h 5v -5a 5 5, 0, 0, 0, -5 -5" transform="rotate(90,100,120)" />
            <rect x="95" y="135" width="10" height="10" transform="rotate(0,100,140)" />
            <rect x="95" y="145" width="10" height="10" transform="rotate(0,100,150)" />
            <path d="M 95 155v 10h 10v -5a 5 5, 0, 0, 0, -5 -5" transform="rotate(90,100,160)" />
            <rect x="95" y="185" width="10" height="10" transform="rotate(0,100,190)" />
            <path d="M 95 195v 10h 10v -5a 5 5, 0, 0, 0, -5 -5" transform="rotate(90,100,200)" />
            <path d="M 95 235v 10h 10v -5a 5 5, 0, 0, 0, -5 -5" transform="rotate(-90,100,240)" />
            <rect x="95" y="245" width="10" height="10" transform="rotate(0,100,250)" />
            <rect x="95" y="255" width="10" height="10" transform="rotate(0,100,260)" />
            <path d="M 95 275v 10h 10v -5a 5 5, 0, 0, 0, -5 -5" transform="rotate(90,100,280)" />
            <rect x="105" y="25" width="10" height="10" transform="rotate(0,110,30)" />
            <rect x="105" y="35" width="10" height="10" transform="rotate(0,110,40)" />
            <path d="M 105 65v 10h 10v -5a 5 5, 0, 0, 0, -5 -5" transform="rotate(-90,110,70)" />
            <rect x="105" y="75" width="10" height="10" transform="rotate(0,110,80)" />
            <path d="M 105 105v 5a 5 5, 0, 0, 0, 5 5h 5v -5a 5 5, 0, 0, 0, -5 -5" transform="rotate(90,110,110)" />
            <path d="M 105 125v 10h 10v -5a 5 5, 0, 0, 0, -5 -5" transform="rotate(-90,110,130)" />
            <path d="M 105 135v 10h 10v -5a 5 5, 0, 0, 0, -5 -5" transform="rotate(90,110,140)" />
            <path d="M 105 175v 10h 10v -5a 5 5, 0, 0, 0, -5 -5" transform="rotate(-90,110,180)" />
            <path d="M 105 205v 10h 10v -5a 5 5, 0, 0, 0, -5 -5" transform="rotate(-90,110,210)" />
            <rect x="105" y="215" width="10" height="10" transform="rotate(0,110,220)" />
            <path d="M 105 225v 10h 10v -5a 5 5, 0, 0, 0, -5 -5" transform="rotate(90,110,230)" />
            <rect x="105" y="255" width="10" height="10" transform="rotate(0,110,260)" />
            <rect x="115" y="35" width="10" height="10" transform="rotate(0,120,40)" />
            <path d="M 115 45v 10h 10v -5a 5 5, 0, 0, 0, -5 -5" transform="rotate(90,120,50)" />
            <rect x="115" y="75" width="10" height="10" transform="rotate(0,120,80)" />
            <rect x="115" y="85" width="10" height="10" transform="rotate(0,120,90)" />
            <path d="M 115 95v 10h 10v -5a 5 5, 0, 0, 0, -5 -5" transform="rotate(90,120,100)" />
            <path d="M 115 115v 10h 10v -5a 5 5, 0, 0, 0, -5 -5" transform="rotate(-90,120,120)" />
            <rect x="115" y="125" width="10" height="10" transform="rotate(0,120,130)" />
            <path d="M 115 145v 10h 10v -5a 5 5, 0, 0, 0, -5 -5" transform="rotate(-90,120,150)" />
            <path d="M 115 175v 10h 10v -5a 5 5, 0, 0, 0, -5 -5" transform="rotate(90,120,180)" />
            <path d="M 115 195v 10h 10v -5a 5 5, 0, 0, 0, -5 -5" transform="rotate(-90,120,200)" />
            <rect x="115" y="255" width="10" height="10" transform="rotate(0,120,260)" />
            <path d="M 115 285v 5a 5 5, 0, 0, 0, 5 5h 5v -5a 5 5, 0, 0, 0, -5 -5" transform="rotate(90,120,290)" />
            <path d="M 125 15v 10h 10v -5a 5 5, 0, 0, 0, -5 -5" transform="rotate(-90,130,20)" />
            <path d="M 125 25v 10h 10v -5a 5 5, 0, 0, 0, -5 -5" transform="rotate(90,130,30)" />
            <path d="M 125 55v 10h 10v -5a 5 5, 0, 0, 0, -5 -5" transform="rotate(-90,130,60)" />
            <path d="M 125 65v 10h 10v -5a 5 5, 0, 0, 0, -5 -5" transform="rotate(90,130,70)" />
            <path d="M 125 85v 10h 10v -5a 5 5, 0, 0, 0, -5 -5" transform="rotate(90,130,90)" />
            <path d="M 125 105v 10h 10v -5a 5 5, 0, 0, 0, -5 -5" transform="rotate(-90,130,110)" />
            <rect x="125" y="115" width="10" height="10" transform="rotate(0,130,120)" />
            <rect x="125" y="125" width="10" height="10" transform="rotate(0,130,130)" />
            <rect x="125" y="135" width="10" height="10" transform="rotate(0,130,140)" />
            <path d="M 125 145v 10h 10v -5a 5 5, 0, 0, 0, -5 -5" transform="rotate(90,130,150)" />
            <path d="M 125 185v 10h 10v -5a 5 5, 0, 0, 0, -5 -5" transform="rotate(-90,130,190)" />
            <rect x="125" y="195" width="10" height="10" transform="rotate(0,130,200)" />
            <rect x="125" y="205" width="10" height="10" transform="rotate(0,130,210)" />
            <rect x="125" y="215" width="10" height="10" transform="rotate(0,130,220)" />
            <rect x="125" y="225" width="10" height="10" transform="rotate(0,130,230)" />
            <path d="M 125 255v 10h 10v -5a 5 5, 0, 0, 0, -5 -5" transform="rotate(90,130,260)" />
            <path d="M 125 275v 5a 5 5, 0, 0, 0, 5 5h 5v -5a 5 5, 0, 0, 0, -5 -5" transform="rotate(90,130,280)" />
            <path d="M 135 5v 10h 10v -5a 5 5, 0, 0, 0, -5 -5" transform="rotate(-90,140,10)" />
            <rect x="135" y="15" width="10" height="10" transform="rotate(0,140,20)" />
            <path d="M 135 35v 10h 10v -5a 5 5, 0, 0, 0, -5 -5" transform="rotate(-90,140,40)" />
            <rect x="135" y="55" width="10" height="10" transform="rotate(0,140,60)" />
            <path d="M 135 95v 10h 10v -5a 5 5, 0, 0, 0, -5 -5" transform="rotate(-90,140,100)" />
            <rect x="135" y="105" width="10" height="10" transform="rotate(0,140,110)" />
            <path d="M 135 115v 10h 10v -5a 5 5, 0, 0, 0, -5 -5" transform="rotate(90,140,120)" />
            <path d="M 135 135v 10h 10v -5a 5 5, 0, 0, 0, -5 -5" transform="rotate(90,140,140)" />
            <path d="M 135 155v 10h 10v -5a 5 5, 0, 0, 0, -5 -5" transform="rotate(-90,140,160)" />
            <rect x="135" y="165" width="10" height="10" transform="rotate(0,140,170)" />
            <rect x="135" y="175" width="10" height="10" transform="rotate(0,140,180)" />
            <path d="M 135 185v 10h 10v -5a 5 5, 0, 0, 0, -5 -5" transform="rotate(90,140,190)" />
            <rect x="135" y="205" width="10" height="10" transform="rotate(0,140,210)" />
            <rect x="135" y="225" width="10" height="10" transform="rotate(0,140,230)" />
            <path d="M 135 245v 5a 5 5, 0, 0, 0, 5 5h 5v -5a 5 5, 0, 0, 0, -5 -5" transform="rotate(90,140,250)" />
            <path d="M 135 265v 5a 5 5, 0, 0, 0, 5 5h 5v -5a 5 5, 0, 0, 0, -5 -5" transform="rotate(90,140,270)" />
            <path d="M 135 285v 10h 10v -5a 5 5, 0, 0, 0, -5 -5" transform="rotate(-90,140,290)" />
            <rect x="145" y="15" width="10" height="10" transform="rotate(0,150,20)" />
            <path d="M 145 35v 10h 10v -5a 5 5, 0, 0, 0, -5 -5" transform="rotate(90,150,40)" />
            <rect x="145" y="55" width="10" height="10" transform="rotate(0,150,60)" />
            <rect x="145" y="65" width="10" height="10" transform="rotate(0,150,70)" />
            <rect x="145" y="75" width="10" height="10" transform="rotate(0,150,80)" />
            <rect x="145" y="85" width="10" height="10" transform="rotate(0,150,90)" />
            <rect x="145" y="95" width="10" height="10" transform="rotate(0,150,100)" />
            <rect x="145" y="105" width="10" height="10" transform="rotate(0,150,110)" />
            <path d="M 145 125v 5a 5 5, 0, 0, 0, 5 5h 5v -5a 5 5, 0, 0, 0, -5 -5" transform="rotate(90,150,130)" />
            <path d="M 145 145v 10h 10v -5a 5 5, 0, 0, 0, -5 -5" transform="rotate(-90,150,150)" />
            <rect x="145" y="155" width="10" height="10" transform="rotate(0,150,160)" />
            <rect x="145" y="165" width="10" height="10" transform="rotate(0,150,170)" />
            <rect x="145" y="175" width="10" height="10" transform="rotate(0,150,180)" />
            <path d="M 145 195v 10h 10v -5a 5 5, 0, 0, 0, -5 -5" transform="rotate(-90,150,200)" />
            <rect x="145" y="205" width="10" height="10" transform="rotate(0,150,210)" />
            <rect x="145" y="225" width="10" height="10" transform="rotate(0,150,230)" />
            <path d="M 145 235v 10h 10v -5a 5 5, 0, 0, 0, -5 -5" transform="rotate(90,150,240)" />
            <path d="M 145 255v 10h 10v -5a 5 5, 0, 0, 0, -5 -5" transform="rotate(-90,150,260)" />
            <path d="M 145 285v 10h 10v -5a 5 5, 0, 0, 0, -5 -5" transform="rotate(90,150,290)" />
            <path d="M 155 5v 10h 10v -5a 5 5, 0, 0, 0, -5 -5" transform="rotate(-90,160,10)" />
            <path d="M 155 15v 10h 10v -5a 5 5, 0, 0, 0, -5 -5" transform="rotate(90,160,20)" />
            <path d="M 155 45v 10h 10v -5a 5 5, 0, 0, 0, -5 -5" transform="rotate(-90,160,50)" />
            <rect x="155" y="75" width="10" height="10" transform="rotate(0,160,80)" />
            <rect x="155" y="105" width="10" height="10" transform="rotate(0,160,110)" />
            <rect x="155" y="155" width="10" height="10" transform="rotate(0,160,160)" />
            <rect x="155" y="175" width="10" height="10" transform="rotate(0,160,180)" />
            <path d="M 155 185v 10h 10v -5a 5 5, 0, 0, 0, -5 -5" transform="rotate(90,160,190)" />
            <path d="M 155 205v 10h 10v -5a 5 5, 0, 0, 0, -5 -5" transform="rotate(90,160,210)" />
            <path d="M 155 225v 10h 10v -5a 5 5, 0, 0, 0, -5 -5" transform="rotate(90,160,230)" />
            <path d="M 155 245v 10h 10v -5a 5 5, 0, 0, 0, -5 -5" transform="rotate(-90,160,250)" />
            <rect x="155" y="255" width="10" height="10" transform="rotate(0,160,260)" />
            <rect x="155" y="265" width="10" height="10" transform="rotate(0,160,270)" />
            <rect x="155" y="275" width="10" height="10" transform="rotate(0,160,280)" />
            <path d="M 165 25v 5a 5 5, 0, 0, 0, 5 5h 5v -5a 5 5, 0, 0, 0, -5 -5" transform="rotate(90,170,30)" />
            <rect x="165" y="45" width="10" height="10" transform="rotate(0,170,50)" />
            <path d="M 165 65v 10h 10v -5a 5 5, 0, 0, 0, -5 -5" transform="rotate(-90,170,70)" />
            <rect x="165" y="75" width="10" height="10" transform="rotate(0,170,80)" />
            <rect x="165" y="85" width="10" height="10" transform="rotate(0,170,90)" />
            <rect x="165" y="105" width="10" height="10" transform="rotate(0,170,110)" />
            <rect x="165" y="115" width="10" height="10" transform="rotate(0,170,120)" />
            <path d="M 165 125v 10h 10v -5a 5 5, 0, 0, 0, -5 -5" transform="rotate(90,170,130)" />
            <rect x="165" y="155" width="10" height="10" transform="rotate(0,170,160)" />
            <rect x="165" y="165" width="10" height="10" transform="rotate(0,170,170)" />
            <path d="M 165 175v 10h 10v -5a 5 5, 0, 0, 0, -5 -5" transform="rotate(90,170,180)" />
            <path d="M 165 235v 10h 10v -5a 5 5, 0, 0, 0, -5 -5" transform="rotate(-90,170,240)" />
            <rect x="165" y="245" width="10" height="10" transform="rotate(0,170,250)" />
            <rect x="165" y="255" width="10" height="10" transform="rotate(0,170,260)" />
            <path d="M 165 275v 10h 10v -5a 5 5, 0, 0, 0, -5 -5" transform="rotate(90,170,280)" />
            <path d="M 175 5v 10h 10v -5a 5 5, 0, 0, 0, -5 -5" transform="rotate(-90,180,10)" />
            <path d="M 175 35v 10h 10v -5a 5 5, 0, 0, 0, -5 -5" transform="rotate(-90,180,40)" />
            <rect x="175" y="45" width="10" height="10" transform="rotate(0,180,50)" />
            <rect x="175" y="55" width="10" height="10" transform="rotate(0,180,60)" />
            <rect x="175" y="85" width="10" height="10" transform="rotate(0,180,90)" />
            <rect x="175" y="95" width="10" height="10" transform="rotate(0,180,100)" />
            <rect x="175" y="105" width="10" height="10" transform="rotate(0,180,110)" />
            <path d="M 175 165v 10h 10v -5a 5 5, 0, 0, 0, -5 -5" transform="rotate(90,180,170)" />
            <path d="M 175 185v 10h 10v -5a 5 5, 0, 0, 0, -5 -5" transform="rotate(-90,180,190)" />
            <rect x="175" y="195" width="10" height="10" transform="rotate(0,180,200)" />
            <rect x="175" y="205" width="10" height="10" transform="rotate(0,180,210)" />
            <rect x="175" y="215" width="10" height="10" transform="rotate(0,180,220)" />
            <path d="M 175 225v 10h 10v -5a 5 5, 0, 0, 0, -5 -5" transform="rotate(90,180,230)" />
            <rect x="175" y="245" width="10" height="10" transform="rotate(0,180,250)" />
            <rect x="175" y="255" width="10" height="10" transform="rotate(0,180,260)" />
            <rect x="175" y="265" width="10" height="10" transform="rotate(0,180,270)" />
            <rect x="185" y="5" width="10" height="10" transform="rotate(0,190,10)" />
            <rect x="185" y="15" width="10" height="10" transform="rotate(0,190,20)" />
            <path d="M 185 35v 10h 10v -5a 5 5, 0, 0, 0, -5 -5" transform="rotate(90,190,40)" />
            <rect x="185" y="55" width="10" height="10" transform="rotate(0,190,60)" />
            <path d="M 185 65v 10h 10v -5a 5 5, 0, 0, 0, -5 -5" transform="rotate(90,190,70)" />
            <path d="M 185 85v 10h 10v -5a 5 5, 0, 0, 0, -5 -5" transform="rotate(90,190,90)" />
            <rect x="185" y="105" width="10" height="10" transform="rotate(0,190,110)" />
            <path d="M 185 115v 10h 10v -5a 5 5, 0, 0, 0, -5 -5" transform="rotate(90,190,120)" />
            <path d="M 185 135v 10h 10v -5a 5 5, 0, 0, 0, -5 -5" transform="rotate(-90,190,140)" />
            <path d="M 185 155v 5a 5 5, 0, 0, 0, 5 5h 5v -5a 5 5, 0, 0, 0, -5 -5" transform="rotate(90,190,160)" />
            <path d="M 185 175v 5a 5 5, 0, 0, 0, 5 5h 5v -5a 5 5, 0, 0, 0, -5 -5" transform="rotate(90,190,180)" />
            <rect x="185" y="195" width="10" height="10" transform="rotate(0,190,200)" />
            <rect x="185" y="245" width="10" height="10" transform="rotate(0,190,250)" />
            <rect x="185" y="265" width="10" height="10" transform="rotate(0,190,270)" />
            <path d="M 185 285v 5a 5 5, 0, 0, 0, 5 5h 5v -5a 5 5, 0, 0, 0, -5 -5" transform="rotate(90,190,290)" />
            <rect x="195" y="5" width="10" height="10" transform="rotate(0,200,10)" />
            <rect x="195" y="15" width="10" height="10" transform="rotate(0,200,20)" />
            <rect x="195" y="55" width="10" height="10" transform="rotate(0,200,60)" />
            <path d="M 195 75v 5a 5 5, 0, 0, 0, 5 5h 5v -5a 5 5, 0, 0, 0, -5 -5" transform="rotate(90,200,80)" />
            <path d="M 195 95v 10h 10v -5a 5 5, 0, 0, 0, -5 -5" transform="rotate(-90,200,100)" />
            <rect x="195" y="105" width="10" height="10" transform="rotate(0,200,110)" />
            <rect x="195" y="135" width="10" height="10" transform="rotate(0,200,140)" />
            <path d="M 195 145v 10h 10v -5a 5 5, 0, 0, 0, -5 -5" transform="rotate(90,200,150)" />
            <path d="M 195 195v 10h 10v -5a 5 5, 0, 0, 0, -5 -5" transform="rotate(90,200,200)" />
            <path d="M 195 215v 10h 10v -5a 5 5, 0, 0, 0, -5 -5" transform="rotate(-90,200,220)" />
            <rect x="195" y="225" width="10" height="10" transform="rotate(0,200,230)" />
            <rect x="195" y="235" width="10" height="10" transform="rotate(0,200,240)" />
            <rect x="195" y="245" width="10" height="10" transform="rotate(0,200,250)" />
            <rect x="195" y="255" width="10" height="10" transform="rotate(0,200,260)" />
            <rect x="195" y="265" width="10" height="10" transform="rotate(0,200,270)" />
            <rect x="205" y="5" width="10" height="10" transform="rotate(0,210,10)" />
            <path d="M 205 15v 10h 10v -5a 5 5, 0, 0, 0, -5 -5" transform="rotate(90,210,20)" />
            <path d="M 205 45v 10h 10v -5a 5 5, 0, 0, 0, -5 -5" transform="rotate(-90,210,50)" />
            <rect x="205" y="55" width="10" height="10" transform="rotate(0,210,60)" />
            <path d="M 205 65v 10h 10v -5a 5 5, 0, 0, 0, -5 -5" transform="rotate(90,210,70)" />
            <rect x="205" y="95" width="10" height="10" transform="rotate(0,210,100)" />
            <rect x="205" y="105" width="10" height="10" transform="rotate(0,210,110)" />
            <rect x="205" y="115" width="10" height="10" transform="rotate(0,210,120)" />
            <rect x="205" y="125" width="10" height="10" transform="rotate(0,210,130)" />
            <path d="M 205 155v 10h 10v -5a 5 5, 0, 0, 0, -5 -5" transform="rotate(-90,210,160)" />
            <rect x="205" y="165" width="10" height="10" transform="rotate(0,210,170)" />
            <path d="M 205 175v 10h 10v -5a 5 5, 0, 0, 0, -5 -5" transform="rotate(90,210,180)" />
            <path d="M 205 205v 10h 10v -5a 5 5, 0, 0, 0, -5 -5" transform="rotate(-90,210,210)" />
            <rect x="205" y="215" width="10" height="10" transform="rotate(0,210,220)" />
            <rect x="205" y="225" width="10" height="10" transform="rotate(0,210,230)" />
            <rect x="205" y="235" width="10" height="10" transform="rotate(0,210,240)" />
            <rect x="205" y="245" width="10" height="10" transform="rotate(0,210,250)" />
            <rect x="205" y="255" width="10" height="10" transform="rotate(0,210,260)" />
            <rect x="205" y="265" width="10" height="10" transform="rotate(0,210,270)" />
            <path d="M 215 85v 10h 10v -5a 5 5, 0, 0, 0, -5 -5" transform="rotate(-90,220,90)" />
            <rect x="215" y="95" width="10" height="10" transform="rotate(0,220,100)" />
            <rect x="215" y="125" width="10" height="10" transform="rotate(0,220,130)" />
            <rect x="215" y="155" width="10" height="10" transform="rotate(0,220,160)" />
            <path d="M 215 165v 10h 10v -5a 5 5, 0, 0, 0, -5 -5" transform="rotate(90,220,170)" />
            <path d="M 215 195v 10h 10v -5a 5 5, 0, 0, 0, -5 -5" transform="rotate(-90,220,200)" />
            <rect x="215" y="205" width="10" height="10" transform="rotate(0,220,210)" />
            <rect x="215" y="245" width="10" height="10" transform="rotate(0,220,250)" />
            <rect x="215" y="255" width="10" height="10" transform="rotate(0,220,260)" />
            <rect x="215" y="265" width="10" height="10" transform="rotate(0,220,270)" />
            <path d="M 225 95v 10h 10v -5a 5 5, 0, 0, 0, -5 -5" transform="rotate(90,230,100)" />
            <path d="M 225 115v 10h 10v -5a 5 5, 0, 0, 0, -5 -5" transform="rotate(-90,230,120)" />
            <path d="M 225 125v 10h 10v -5a 5 5, 0, 0, 0, -5 -5" transform="rotate(90,230,130)" />
            <rect x="225" y="155" width="10" height="10" transform="rotate(0,230,160)" />
            <path d="M 225 175v 10h 10v -5a 5 5, 0, 0, 0, -5 -5" transform="rotate(-90,230,180)" />
            <rect x="225" y="185" width="10" height="10" transform="rotate(0,230,190)" />
            <rect x="225" y="195" width="10" height="10" transform="rotate(0,230,200)" />
            <rect x="225" y="205" width="10" height="10" transform="rotate(0,230,210)" />
            <path d="M 225 225v 5a 5 5, 0, 0, 0, 5 5h 5v -5a 5 5, 0, 0, 0, -5 -5" transform="rotate(90,230,230)" />
            <rect x="225" y="245" width="10" height="10" transform="rotate(0,230,250)" />
            <path d="M 225 265v 10h 10v -5a 5 5, 0, 0, 0, -5 -5" transform="rotate(90,230,270)" />
            <path d="M 235 85v 10h 10v -5a 5 5, 0, 0, 0, -5 -5" transform="rotate(-90,240,90)" />
            <path d="M 235 115v 10h 10v -5a 5 5, 0, 0, 0, -5 -5" transform="rotate(90,240,120)" />
            <path d="M 235 135v 10h 10v -5a 5 5, 0, 0, 0, -5 -5" transform="rotate(-90,240,140)" />
            <rect x="235" y="145" width="10" height="10" transform="rotate(0,240,150)" />
            <rect x="235" y="155" width="10" height="10" transform="rotate(0,240,160)" />
            <rect x="235" y="165" width="10" height="10" transform="rotate(0,240,170)" />
            <rect x="235" y="175" width="10" height="10" transform="rotate(0,240,180)" />
            <rect x="235" y="195" width="10" height="10" transform="rotate(0,240,200)" />
            <rect x="235" y="205" width="10" height="10" transform="rotate(0,240,210)" />
            <rect x="235" y="245" width="10" height="10" transform="rotate(0,240,250)" />
            <path d="M 235 255v 10h 10v -5a 5 5, 0, 0, 0, -5 -5" transform="rotate(90,240,260)" />
            <rect x="245" y="85" width="10" height="10" transform="rotate(0,250,90)" />
            <path d="M 245 105v 10h 10v -5a 5 5, 0, 0, 0, -5 -5" transform="rotate(-90,250,110)" />
            <path d="M 245 125v 10h 10v -5a 5 5, 0, 0, 0, -5 -5" transform="rotate(-90,250,130)" />
            <rect x="245" y="155" width="10" height="10" transform="rotate(0,250,160)" />
            <rect x="245" y="165" width="10" height="10" transform="rotate(0,250,170)" />
            <rect x="245" y="175" width="10" height="10" transform="rotate(0,250,180)" />
            <rect x="245" y="185" width="10" height="10" transform="rotate(0,250,190)" />
            <rect x="245" y="195" width="10" height="10" transform="rotate(0,250,200)" />
            <rect x="245" y="205" width="10" height="10" transform="rotate(0,250,210)" />
            <rect x="245" y="215" width="10" height="10" transform="rotate(0,250,220)" />
            <rect x="245" y="225" width="10" height="10" transform="rotate(0,250,230)" />
            <rect x="245" y="235" width="10" height="10" transform="rotate(0,250,240)" />
            <path d="M 245 245v 10h 10v -5a 5 5, 0, 0, 0, -5 -5" transform="rotate(90,250,250)" />
            <rect x="255" y="85" width="10" height="10" transform="rotate(0,260,90)" />
            <rect x="255" y="95" width="10" height="10" transform="rotate(0,260,100)" />
            <path d="M 255 105v 10h 10v -5a 5 5, 0, 0, 0, -5 -5" transform="rotate(90,260,110)" />
            <rect x="255" y="125" width="10" height="10" transform="rotate(0,260,130)" />
            <rect x="255" y="135" width="10" height="10" transform="rotate(0,260,140)" />
            <rect x="255" y="165" width="10" height="10" transform="rotate(0,260,170)" />
            <rect x="255" y="235" width="10" height="10" transform="rotate(0,260,240)" />
            <path d="M 255 275v 10h 10v -5a 5 5, 0, 0, 0, -5 -5" transform="rotate(-90,260,280)" />
            <rect x="265" y="95" width="10" height="10" transform="rotate(0,270,100)" />
            <rect x="265" y="135" width="10" height="10" transform="rotate(0,270,140)" />
            <path d="M 265 165v 10h 10v -5a 5 5, 0, 0, 0, -5 -5" transform="rotate(90,270,170)" />
            <path d="M 265 185v 5a 5 5, 0, 0, 0, 5 5h 5v -5a 5 5, 0, 0, 0, -5 -5" transform="rotate(90,270,190)" />
            <path d="M 265 205v 10h 10v -5a 5 5, 0, 0, 0, -5 -5" transform="rotate(-90,270,210)" />
            <path d="M 265 215v 10h 10v -5a 5 5, 0, 0, 0, -5 -5" transform="rotate(90,270,220)" />
            <rect x="265" y="235" width="10" height="10" transform="rotate(0,270,240)" />
            <rect x="265" y="245" width="10" height="10" transform="rotate(0,270,250)" />
            <path d="M 265 265v 10h 10v -5a 5 5, 0, 0, 0, -5 -5" transform="rotate(-90,270,270)" />
            <rect x="265" y="275" width="10" height="10" transform="rotate(0,270,280)" />
            <rect x="265" y="285" width="10" height="10" transform="rotate(0,270,290)" />
            <path d="M 275 85v 10h 10v -5a 5 5, 0, 0, 0, -5 -5" transform="rotate(-90,280,90)" />
            <rect x="275" y="95" width="10" height="10" transform="rotate(0,280,100)" />
            <path d="M 275 115v 10h 10v -5a 5 5, 0, 0, 0, -5 -5" transform="rotate(-90,280,120)" />
            <rect x="275" y="125" width="10" height="10" transform="rotate(0,280,130)" />
            <rect x="275" y="135" width="10" height="10" transform="rotate(0,280,140)" />
            <rect x="275" y="145" width="10" height="10" transform="rotate(0,280,150)" />
            <path d="M 275 155v 10h 10v -5a 5 5, 0, 0, 0, -5 -5" transform="rotate(90,280,160)" />
            <rect x="275" y="205" width="10" height="10" transform="rotate(0,280,210)" />
            <rect x="275" y="245" width="10" height="10" transform="rotate(0,280,250)" />
            <path d="M 275 265v 10h 10v -5a 5 5, 0, 0, 0, -5 -5" transform="rotate(90,280,270)" />
            <path d="M 275 285v 10h 10v -5a 5 5, 0, 0, 0, -5 -5" transform="rotate(90,280,290)" />
            <path d="M 285 95v 10h 10v -5a 5 5, 0, 0, 0, -5 -5" transform="rotate(90,290,100)" />
            <rect x="285" y="115" width="10" height="10" transform="rotate(0,290,120)" />
            <rect x="285" y="125" width="10" height="10" transform="rotate(0,290,130)" />
            <rect x="285" y="135" width="10" height="10" transform="rotate(0,290,140)" />
            <path d="M 285 145v 10h 10v -5a 5 5, 0, 0, 0, -5 -5" transform="rotate(90,290,150)" />
            <path d="M 285 165v 5a 5 5, 0, 0, 0, 5 5h 5v -5a 5 5, 0, 0, 0, -5 -5" transform="rotate(90,290,170)" />
            <path d="M 285 195v 10h 10v -5a 5 5, 0, 0, 0, -5 -5" transform="rotate(-90,290,200)" />
            <rect x="285" y="205" width="10" height="10" transform="rotate(0,290,210)" />
            <path d="M 285 215v 10h 10v -5a 5 5, 0, 0, 0, -5 -5" transform="rotate(90,290,220)" />
            <path d="M 285 235v 10h 10v -5a 5 5, 0, 0, 0, -5 -5" transform="rotate(-90,290,240)" />
            <rect x="285" y="245" width="10" height="10" transform="rotate(0,290,250)" />
            <path d="M 285 255v 10h 10v -5a 5 5, 0, 0, 0, -5 -5" transform="rotate(90,290,260)" />
          </g>
          <g class="green-dots" />
          <g class="corners-square-color-0-0">
            <path clip-rule="evenodd"
              d="M 5 30v 20a 25 25, 0, 0, 0, 25 25h 20a 25 25, 0, 0, 0, 25 -25v -20a 25 25, 0, 0, 0, -25 -25h -20a 25 25, 0, 0, 0, -25 25M 30 15h 20a 15 15, 0, 0, 1, 15 15v 20a 15 15, 0, 0, 1, -15 15h -20a 15 15, 0, 0, 1, -15 -15v -20a 15 15, 0, 0, 1, 15 -15"
              transform="rotate(0,40,40)" />
          </g>
          <g class="corners-dot-color-0-0">
            <circle cx="40" cy="40" r="15" transform="rotate(0,40,40)" />
          </g>
          <g class="corners-square-color-1-0">
            <path clip-rule="evenodd"
              d="M 225 30v 20a 25 25, 0, 0, 0, 25 25h 20a 25 25, 0, 0, 0, 25 -25v -20a 25 25, 0, 0, 0, -25 -25h -20a 25 25, 0, 0, 0, -25 25M 250 15h 20a 15 15, 0, 0, 1, 15 15v 20a 15 15, 0, 0, 1, -15 15h -20a 15 15, 0, 0, 1, -15 -15v -20a 15 15, 0, 0, 1, 15 -15"
              transform="rotate(90,260,40)" />
          </g>
          <g class="corners-dot-color-1-0">
            <circle cx="260" cy="40" r="15" transform="rotate(90,260,40)" />
          </g>
          <g class="corners-square-color-0-1">
            <path clip-rule="evenodd"
              d="M 5 250v 20a 25 25, 0, 0, 0, 25 25h 20a 25 25, 0, 0, 0, 25 -25v -20a 25 25, 0, 0, 0, -25 -25h -20a 25 25, 0, 0, 0, -25 25M 30 235h 20a 15 15, 0, 0, 1, 15 15v 20a 15 15, 0, 0, 1, -15 15h -20a 15 15, 0, 0, 1, -15 -15v -20a 15 15, 0, 0, 1, 15 -15"
              transform="rotate(-90,40,260)" />
          </g>
          <g class="corners-dot-color-0-1">
            <circle cx="40" cy="260" r="15" transform="rotate(-90,40,260)" />
          </g>
        </svg></g>
    </g>
  </svg></svg>